<?xml version="1.0" encoding="utf-8" standalone="no"?>
<!DOCTYPE svg PUBLIC "-//W3C//DTD SVG 1.1//EN"
  "http://www.w3.org/Graphics/SVG/1.1/DTD/svg11.dtd">
<!-- Created with matplotlib (https://matplotlib.org/) -->
<svg height="720pt" version="1.1" viewBox="0 0 1080 720" width="1080pt" xmlns="http://www.w3.org/2000/svg" xmlns:xlink="http://www.w3.org/1999/xlink">
 <metadata>
  <rdf:RDF xmlns:cc="http://creativecommons.org/ns#" xmlns:dc="http://purl.org/dc/elements/1.1/" xmlns:rdf="http://www.w3.org/1999/02/22-rdf-syntax-ns#">
   <cc:Work>
    <dc:type rdf:resource="http://purl.org/dc/dcmitype/StillImage"/>
    <dc:date>2020-09-01T11:17:57.100127</dc:date>
    <dc:format>image/svg+xml</dc:format>
    <dc:creator>
     <cc:Agent>
      <dc:title>Matplotlib v3.3.0, https://matplotlib.org/</dc:title>
     </cc:Agent>
    </dc:creator>
   </cc:Work>
  </rdf:RDF>
 </metadata>
 <defs>
  <style type="text/css">*{stroke-linecap:butt;stroke-linejoin:round;}</style>
 </defs>
 <g id="figure_1">
  <g id="patch_1">
   <path d="M 0 720 
L 1080 720 
L 1080 0 
L 0 0 
z
" style="fill:none;"/>
  </g>
  <g id="axes_1">
   <g id="patch_2">
    <path d="M 135 630 
L 972 630 
L 972 86.4 
L 135 86.4 
z
" style="fill:#ffffff;"/>
   </g>
   <g id="matplotlib.axis_1">
    <g id="xtick_1">
     <g id="line2d_1">
      <defs>
       <path d="M 0 0 
L 0 3.5 
" id="m8ee9d6855f" style="stroke:#000000;stroke-width:0.8;"/>
      </defs>
      <g>
       <use style="stroke:#000000;stroke-width:0.8;" x="142.09322" xlink:href="#m8ee9d6855f" y="630"/>
      </g>
     </g>
     <g id="text_1">
      <!-- 1 -->
      <g transform="translate(138.91197 644.598438)scale(0.1 -0.1)">
       <defs>
        <path d="M 12.40625 8.296875 
L 28.515625 8.296875 
L 28.515625 63.921875 
L 10.984375 60.40625 
L 10.984375 69.390625 
L 28.421875 72.90625 
L 38.28125 72.90625 
L 38.28125 8.296875 
L 54.390625 8.296875 
L 54.390625 0 
L 12.40625 0 
z
" id="DejaVuSans-49"/>
       </defs>
       <use xlink:href="#DejaVuSans-49"/>
      </g>
     </g>
    </g>
    <g id="xtick_2">
     <g id="line2d_2">
      <g>
       <use style="stroke:#000000;stroke-width:0.8;" x="156.279661" xlink:href="#m8ee9d6855f" y="630"/>
      </g>
     </g>
     <g id="text_2">
      <!-- 2 -->
      <g transform="translate(153.098411 644.598438)scale(0.1 -0.1)">
       <defs>
        <path d="M 19.1875 8.296875 
L 53.609375 8.296875 
L 53.609375 0 
L 7.328125 0 
L 7.328125 8.296875 
Q 12.9375 14.109375 22.625 23.890625 
Q 32.328125 33.6875 34.8125 36.53125 
Q 39.546875 41.84375 41.421875 45.53125 
Q 43.3125 49.21875 43.3125 52.78125 
Q 43.3125 58.59375 39.234375 62.25 
Q 35.15625 65.921875 28.609375 65.921875 
Q 23.96875 65.921875 18.8125 64.3125 
Q 13.671875 62.703125 7.8125 59.421875 
L 7.8125 69.390625 
Q 13.765625 71.78125 18.9375 73 
Q 24.125 74.21875 28.421875 74.21875 
Q 39.75 74.21875 46.484375 68.546875 
Q 53.21875 62.890625 53.21875 53.421875 
Q 53.21875 48.921875 51.53125 44.890625 
Q 49.859375 40.875 45.40625 35.40625 
Q 44.1875 33.984375 37.640625 27.21875 
Q 31.109375 20.453125 19.1875 8.296875 
z
" id="DejaVuSans-50"/>
       </defs>
       <use xlink:href="#DejaVuSans-50"/>
      </g>
     </g>
    </g>
    <g id="xtick_3">
     <g id="line2d_3">
      <g>
       <use style="stroke:#000000;stroke-width:0.8;" x="170.466102" xlink:href="#m8ee9d6855f" y="630"/>
      </g>
     </g>
     <g id="text_3">
      <!-- 3 -->
      <g transform="translate(167.284852 644.598438)scale(0.1 -0.1)">
       <defs>
        <path d="M 40.578125 39.3125 
Q 47.65625 37.796875 51.625 33 
Q 55.609375 28.21875 55.609375 21.1875 
Q 55.609375 10.40625 48.1875 4.484375 
Q 40.765625 -1.421875 27.09375 -1.421875 
Q 22.515625 -1.421875 17.65625 -0.515625 
Q 12.796875 0.390625 7.625 2.203125 
L 7.625 11.71875 
Q 11.71875 9.328125 16.59375 8.109375 
Q 21.484375 6.890625 26.8125 6.890625 
Q 36.078125 6.890625 40.9375 10.546875 
Q 45.796875 14.203125 45.796875 21.1875 
Q 45.796875 27.640625 41.28125 31.265625 
Q 36.765625 34.90625 28.71875 34.90625 
L 20.21875 34.90625 
L 20.21875 43.015625 
L 29.109375 43.015625 
Q 36.375 43.015625 40.234375 45.921875 
Q 44.09375 48.828125 44.09375 54.296875 
Q 44.09375 59.90625 40.109375 62.90625 
Q 36.140625 65.921875 28.71875 65.921875 
Q 24.65625 65.921875 20.015625 65.03125 
Q 15.375 64.15625 9.8125 62.3125 
L 9.8125 71.09375 
Q 15.4375 72.65625 20.34375 73.4375 
Q 25.25 74.21875 29.59375 74.21875 
Q 40.828125 74.21875 47.359375 69.109375 
Q 53.90625 64.015625 53.90625 55.328125 
Q 53.90625 49.265625 50.4375 45.09375 
Q 46.96875 40.921875 40.578125 39.3125 
z
" id="DejaVuSans-51"/>
       </defs>
       <use xlink:href="#DejaVuSans-51"/>
      </g>
     </g>
    </g>
    <g id="xtick_4">
     <g id="line2d_4">
      <g>
       <use style="stroke:#000000;stroke-width:0.8;" x="184.652542" xlink:href="#m8ee9d6855f" y="630"/>
      </g>
     </g>
     <g id="text_4">
      <!-- 4 -->
      <g transform="translate(181.471292 644.598438)scale(0.1 -0.1)">
       <defs>
        <path d="M 37.796875 64.3125 
L 12.890625 25.390625 
L 37.796875 25.390625 
z
M 35.203125 72.90625 
L 47.609375 72.90625 
L 47.609375 25.390625 
L 58.015625 25.390625 
L 58.015625 17.1875 
L 47.609375 17.1875 
L 47.609375 0 
L 37.796875 0 
L 37.796875 17.1875 
L 4.890625 17.1875 
L 4.890625 26.703125 
z
" id="DejaVuSans-52"/>
       </defs>
       <use xlink:href="#DejaVuSans-52"/>
      </g>
     </g>
    </g>
    <g id="xtick_5">
     <g id="line2d_5">
      <g>
       <use style="stroke:#000000;stroke-width:0.8;" x="198.838983" xlink:href="#m8ee9d6855f" y="630"/>
      </g>
     </g>
     <g id="text_5">
      <!-- 5 -->
      <g transform="translate(195.657733 644.598438)scale(0.1 -0.1)">
       <defs>
        <path d="M 10.796875 72.90625 
L 49.515625 72.90625 
L 49.515625 64.59375 
L 19.828125 64.59375 
L 19.828125 46.734375 
Q 21.96875 47.46875 24.109375 47.828125 
Q 26.265625 48.1875 28.421875 48.1875 
Q 40.625 48.1875 47.75 41.5 
Q 54.890625 34.8125 54.890625 23.390625 
Q 54.890625 11.625 47.5625 5.09375 
Q 40.234375 -1.421875 26.90625 -1.421875 
Q 22.3125 -1.421875 17.546875 -0.640625 
Q 12.796875 0.140625 7.71875 1.703125 
L 7.71875 11.625 
Q 12.109375 9.234375 16.796875 8.0625 
Q 21.484375 6.890625 26.703125 6.890625 
Q 35.15625 6.890625 40.078125 11.328125 
Q 45.015625 15.765625 45.015625 23.390625 
Q 45.015625 31 40.078125 35.4375 
Q 35.15625 39.890625 26.703125 39.890625 
Q 22.75 39.890625 18.8125 39.015625 
Q 14.890625 38.140625 10.796875 36.28125 
z
" id="DejaVuSans-53"/>
       </defs>
       <use xlink:href="#DejaVuSans-53"/>
      </g>
     </g>
    </g>
    <g id="xtick_6">
     <g id="line2d_6">
      <g>
       <use style="stroke:#000000;stroke-width:0.8;" x="213.025424" xlink:href="#m8ee9d6855f" y="630"/>
      </g>
     </g>
     <g id="text_6">
      <!-- 6 -->
      <g transform="translate(209.844174 644.598438)scale(0.1 -0.1)">
       <defs>
        <path d="M 33.015625 40.375 
Q 26.375 40.375 22.484375 35.828125 
Q 18.609375 31.296875 18.609375 23.390625 
Q 18.609375 15.53125 22.484375 10.953125 
Q 26.375 6.390625 33.015625 6.390625 
Q 39.65625 6.390625 43.53125 10.953125 
Q 47.40625 15.53125 47.40625 23.390625 
Q 47.40625 31.296875 43.53125 35.828125 
Q 39.65625 40.375 33.015625 40.375 
z
M 52.59375 71.296875 
L 52.59375 62.3125 
Q 48.875 64.0625 45.09375 64.984375 
Q 41.3125 65.921875 37.59375 65.921875 
Q 27.828125 65.921875 22.671875 59.328125 
Q 17.53125 52.734375 16.796875 39.40625 
Q 19.671875 43.65625 24.015625 45.921875 
Q 28.375 48.1875 33.59375 48.1875 
Q 44.578125 48.1875 50.953125 41.515625 
Q 57.328125 34.859375 57.328125 23.390625 
Q 57.328125 12.15625 50.6875 5.359375 
Q 44.046875 -1.421875 33.015625 -1.421875 
Q 20.359375 -1.421875 13.671875 8.265625 
Q 6.984375 17.96875 6.984375 36.375 
Q 6.984375 53.65625 15.1875 63.9375 
Q 23.390625 74.21875 37.203125 74.21875 
Q 40.921875 74.21875 44.703125 73.484375 
Q 48.484375 72.75 52.59375 71.296875 
z
" id="DejaVuSans-54"/>
       </defs>
       <use xlink:href="#DejaVuSans-54"/>
      </g>
     </g>
    </g>
    <g id="xtick_7">
     <g id="line2d_7">
      <g>
       <use style="stroke:#000000;stroke-width:0.8;" x="227.211864" xlink:href="#m8ee9d6855f" y="630"/>
      </g>
     </g>
     <g id="text_7">
      <!-- 7 -->
      <g transform="translate(224.030614 644.598438)scale(0.1 -0.1)">
       <defs>
        <path d="M 8.203125 72.90625 
L 55.078125 72.90625 
L 55.078125 68.703125 
L 28.609375 0 
L 18.3125 0 
L 43.21875 64.59375 
L 8.203125 64.59375 
z
" id="DejaVuSans-55"/>
       </defs>
       <use xlink:href="#DejaVuSans-55"/>
      </g>
     </g>
    </g>
    <g id="xtick_8">
     <g id="line2d_8">
      <g>
       <use style="stroke:#000000;stroke-width:0.8;" x="241.398305" xlink:href="#m8ee9d6855f" y="630"/>
      </g>
     </g>
     <g id="text_8">
      <!-- 8 -->
      <g transform="translate(238.217055 644.598438)scale(0.1 -0.1)">
       <defs>
        <path d="M 31.78125 34.625 
Q 24.75 34.625 20.71875 30.859375 
Q 16.703125 27.09375 16.703125 20.515625 
Q 16.703125 13.921875 20.71875 10.15625 
Q 24.75 6.390625 31.78125 6.390625 
Q 38.8125 6.390625 42.859375 10.171875 
Q 46.921875 13.96875 46.921875 20.515625 
Q 46.921875 27.09375 42.890625 30.859375 
Q 38.875 34.625 31.78125 34.625 
z
M 21.921875 38.8125 
Q 15.578125 40.375 12.03125 44.71875 
Q 8.5 49.078125 8.5 55.328125 
Q 8.5 64.0625 14.71875 69.140625 
Q 20.953125 74.21875 31.78125 74.21875 
Q 42.671875 74.21875 48.875 69.140625 
Q 55.078125 64.0625 55.078125 55.328125 
Q 55.078125 49.078125 51.53125 44.71875 
Q 48 40.375 41.703125 38.8125 
Q 48.828125 37.15625 52.796875 32.3125 
Q 56.78125 27.484375 56.78125 20.515625 
Q 56.78125 9.90625 50.3125 4.234375 
Q 43.84375 -1.421875 31.78125 -1.421875 
Q 19.734375 -1.421875 13.25 4.234375 
Q 6.78125 9.90625 6.78125 20.515625 
Q 6.78125 27.484375 10.78125 32.3125 
Q 14.796875 37.15625 21.921875 38.8125 
z
M 18.3125 54.390625 
Q 18.3125 48.734375 21.84375 45.5625 
Q 25.390625 42.390625 31.78125 42.390625 
Q 38.140625 42.390625 41.71875 45.5625 
Q 45.3125 48.734375 45.3125 54.390625 
Q 45.3125 60.0625 41.71875 63.234375 
Q 38.140625 66.40625 31.78125 66.40625 
Q 25.390625 66.40625 21.84375 63.234375 
Q 18.3125 60.0625 18.3125 54.390625 
z
" id="DejaVuSans-56"/>
       </defs>
       <use xlink:href="#DejaVuSans-56"/>
      </g>
     </g>
    </g>
    <g id="xtick_9">
     <g id="line2d_9">
      <g>
       <use style="stroke:#000000;stroke-width:0.8;" x="255.584746" xlink:href="#m8ee9d6855f" y="630"/>
      </g>
     </g>
     <g id="text_9">
      <!-- 9 -->
      <g transform="translate(252.403496 644.598438)scale(0.1 -0.1)">
       <defs>
        <path d="M 10.984375 1.515625 
L 10.984375 10.5 
Q 14.703125 8.734375 18.5 7.8125 
Q 22.3125 6.890625 25.984375 6.890625 
Q 35.75 6.890625 40.890625 13.453125 
Q 46.046875 20.015625 46.78125 33.40625 
Q 43.953125 29.203125 39.59375 26.953125 
Q 35.25 24.703125 29.984375 24.703125 
Q 19.046875 24.703125 12.671875 31.3125 
Q 6.296875 37.9375 6.296875 49.421875 
Q 6.296875 60.640625 12.9375 67.421875 
Q 19.578125 74.21875 30.609375 74.21875 
Q 43.265625 74.21875 49.921875 64.515625 
Q 56.59375 54.828125 56.59375 36.375 
Q 56.59375 19.140625 48.40625 8.859375 
Q 40.234375 -1.421875 26.421875 -1.421875 
Q 22.703125 -1.421875 18.890625 -0.6875 
Q 15.09375 0.046875 10.984375 1.515625 
z
M 30.609375 32.421875 
Q 37.25 32.421875 41.125 36.953125 
Q 45.015625 41.5 45.015625 49.421875 
Q 45.015625 57.28125 41.125 61.84375 
Q 37.25 66.40625 30.609375 66.40625 
Q 23.96875 66.40625 20.09375 61.84375 
Q 16.21875 57.28125 16.21875 49.421875 
Q 16.21875 41.5 20.09375 36.953125 
Q 23.96875 32.421875 30.609375 32.421875 
z
" id="DejaVuSans-57"/>
       </defs>
       <use xlink:href="#DejaVuSans-57"/>
      </g>
     </g>
    </g>
    <g id="xtick_10">
     <g id="line2d_10">
      <g>
       <use style="stroke:#000000;stroke-width:0.8;" x="269.771186" xlink:href="#m8ee9d6855f" y="630"/>
      </g>
     </g>
     <g id="text_10">
      <!-- 10 -->
      <g transform="translate(263.408686 644.598438)scale(0.1 -0.1)">
       <defs>
        <path d="M 31.78125 66.40625 
Q 24.171875 66.40625 20.328125 58.90625 
Q 16.5 51.421875 16.5 36.375 
Q 16.5 21.390625 20.328125 13.890625 
Q 24.171875 6.390625 31.78125 6.390625 
Q 39.453125 6.390625 43.28125 13.890625 
Q 47.125 21.390625 47.125 36.375 
Q 47.125 51.421875 43.28125 58.90625 
Q 39.453125 66.40625 31.78125 66.40625 
z
M 31.78125 74.21875 
Q 44.046875 74.21875 50.515625 64.515625 
Q 56.984375 54.828125 56.984375 36.375 
Q 56.984375 17.96875 50.515625 8.265625 
Q 44.046875 -1.421875 31.78125 -1.421875 
Q 19.53125 -1.421875 13.0625 8.265625 
Q 6.59375 17.96875 6.59375 36.375 
Q 6.59375 54.828125 13.0625 64.515625 
Q 19.53125 74.21875 31.78125 74.21875 
z
" id="DejaVuSans-48"/>
       </defs>
       <use xlink:href="#DejaVuSans-49"/>
       <use x="63.623047" xlink:href="#DejaVuSans-48"/>
      </g>
     </g>
    </g>
    <g id="xtick_11">
     <g id="line2d_11">
      <g>
       <use style="stroke:#000000;stroke-width:0.8;" x="283.957627" xlink:href="#m8ee9d6855f" y="630"/>
      </g>
     </g>
     <g id="text_11">
      <!-- 11 -->
      <g transform="translate(277.595127 644.598438)scale(0.1 -0.1)">
       <use xlink:href="#DejaVuSans-49"/>
       <use x="63.623047" xlink:href="#DejaVuSans-49"/>
      </g>
     </g>
    </g>
    <g id="xtick_12">
     <g id="line2d_12">
      <g>
       <use style="stroke:#000000;stroke-width:0.8;" x="298.144068" xlink:href="#m8ee9d6855f" y="630"/>
      </g>
     </g>
     <g id="text_12">
      <!-- 12 -->
      <g transform="translate(291.781568 644.598438)scale(0.1 -0.1)">
       <use xlink:href="#DejaVuSans-49"/>
       <use x="63.623047" xlink:href="#DejaVuSans-50"/>
      </g>
     </g>
    </g>
    <g id="xtick_13">
     <g id="line2d_13">
      <g>
       <use style="stroke:#000000;stroke-width:0.8;" x="312.330508" xlink:href="#m8ee9d6855f" y="630"/>
      </g>
     </g>
     <g id="text_13">
      <!-- 13 -->
      <g transform="translate(305.968008 644.598438)scale(0.1 -0.1)">
       <use xlink:href="#DejaVuSans-49"/>
       <use x="63.623047" xlink:href="#DejaVuSans-51"/>
      </g>
     </g>
    </g>
    <g id="xtick_14">
     <g id="line2d_14">
      <g>
       <use style="stroke:#000000;stroke-width:0.8;" x="326.516949" xlink:href="#m8ee9d6855f" y="630"/>
      </g>
     </g>
     <g id="text_14">
      <!-- 14 -->
      <g transform="translate(320.154449 644.598438)scale(0.1 -0.1)">
       <use xlink:href="#DejaVuSans-49"/>
       <use x="63.623047" xlink:href="#DejaVuSans-52"/>
      </g>
     </g>
    </g>
    <g id="xtick_15">
     <g id="line2d_15">
      <g>
       <use style="stroke:#000000;stroke-width:0.8;" x="340.70339" xlink:href="#m8ee9d6855f" y="630"/>
      </g>
     </g>
     <g id="text_15">
      <!-- 15 -->
      <g transform="translate(334.34089 644.598438)scale(0.1 -0.1)">
       <use xlink:href="#DejaVuSans-49"/>
       <use x="63.623047" xlink:href="#DejaVuSans-53"/>
      </g>
     </g>
    </g>
    <g id="xtick_16">
     <g id="line2d_16">
      <g>
       <use style="stroke:#000000;stroke-width:0.8;" x="354.889831" xlink:href="#m8ee9d6855f" y="630"/>
      </g>
     </g>
     <g id="text_16">
      <!-- 16 -->
      <g transform="translate(348.527331 644.598438)scale(0.1 -0.1)">
       <use xlink:href="#DejaVuSans-49"/>
       <use x="63.623047" xlink:href="#DejaVuSans-54"/>
      </g>
     </g>
    </g>
    <g id="xtick_17">
     <g id="line2d_17">
      <g>
       <use style="stroke:#000000;stroke-width:0.8;" x="369.076271" xlink:href="#m8ee9d6855f" y="630"/>
      </g>
     </g>
     <g id="text_17">
      <!-- 17 -->
      <g transform="translate(362.713771 644.598438)scale(0.1 -0.1)">
       <use xlink:href="#DejaVuSans-49"/>
       <use x="63.623047" xlink:href="#DejaVuSans-55"/>
      </g>
     </g>
    </g>
    <g id="xtick_18">
     <g id="line2d_18">
      <g>
       <use style="stroke:#000000;stroke-width:0.8;" x="383.262712" xlink:href="#m8ee9d6855f" y="630"/>
      </g>
     </g>
     <g id="text_18">
      <!-- 18 -->
      <g transform="translate(376.900212 644.598438)scale(0.1 -0.1)">
       <use xlink:href="#DejaVuSans-49"/>
       <use x="63.623047" xlink:href="#DejaVuSans-56"/>
      </g>
     </g>
    </g>
    <g id="xtick_19">
     <g id="line2d_19">
      <g>
       <use style="stroke:#000000;stroke-width:0.8;" x="397.449153" xlink:href="#m8ee9d6855f" y="630"/>
      </g>
     </g>
     <g id="text_19">
      <!-- 19 -->
      <g transform="translate(391.086653 644.598438)scale(0.1 -0.1)">
       <use xlink:href="#DejaVuSans-49"/>
       <use x="63.623047" xlink:href="#DejaVuSans-57"/>
      </g>
     </g>
    </g>
    <g id="xtick_20">
     <g id="line2d_20">
      <g>
       <use style="stroke:#000000;stroke-width:0.8;" x="411.635593" xlink:href="#m8ee9d6855f" y="630"/>
      </g>
     </g>
     <g id="text_20">
      <!-- 20 -->
      <g transform="translate(405.273093 644.598438)scale(0.1 -0.1)">
       <use xlink:href="#DejaVuSans-50"/>
       <use x="63.623047" xlink:href="#DejaVuSans-48"/>
      </g>
     </g>
    </g>
    <g id="xtick_21">
     <g id="line2d_21">
      <g>
       <use style="stroke:#000000;stroke-width:0.8;" x="425.822034" xlink:href="#m8ee9d6855f" y="630"/>
      </g>
     </g>
     <g id="text_21">
      <!-- 21 -->
      <g transform="translate(419.459534 644.598438)scale(0.1 -0.1)">
       <use xlink:href="#DejaVuSans-50"/>
       <use x="63.623047" xlink:href="#DejaVuSans-49"/>
      </g>
     </g>
    </g>
    <g id="xtick_22">
     <g id="line2d_22">
      <g>
       <use style="stroke:#000000;stroke-width:0.8;" x="440.008475" xlink:href="#m8ee9d6855f" y="630"/>
      </g>
     </g>
     <g id="text_22">
      <!-- 22 -->
      <g transform="translate(433.645975 644.598438)scale(0.1 -0.1)">
       <use xlink:href="#DejaVuSans-50"/>
       <use x="63.623047" xlink:href="#DejaVuSans-50"/>
      </g>
     </g>
    </g>
    <g id="xtick_23">
     <g id="line2d_23">
      <g>
       <use style="stroke:#000000;stroke-width:0.8;" x="454.194915" xlink:href="#m8ee9d6855f" y="630"/>
      </g>
     </g>
     <g id="text_23">
      <!-- 23 -->
      <g transform="translate(447.832415 644.598438)scale(0.1 -0.1)">
       <use xlink:href="#DejaVuSans-50"/>
       <use x="63.623047" xlink:href="#DejaVuSans-51"/>
      </g>
     </g>
    </g>
    <g id="xtick_24">
     <g id="line2d_24">
      <g>
       <use style="stroke:#000000;stroke-width:0.8;" x="468.381356" xlink:href="#m8ee9d6855f" y="630"/>
      </g>
     </g>
     <g id="text_24">
      <!-- 24 -->
      <g transform="translate(462.018856 644.598438)scale(0.1 -0.1)">
       <use xlink:href="#DejaVuSans-50"/>
       <use x="63.623047" xlink:href="#DejaVuSans-52"/>
      </g>
     </g>
    </g>
    <g id="xtick_25">
     <g id="line2d_25">
      <g>
       <use style="stroke:#000000;stroke-width:0.8;" x="482.567797" xlink:href="#m8ee9d6855f" y="630"/>
      </g>
     </g>
     <g id="text_25">
      <!-- 25 -->
      <g transform="translate(476.205297 644.598438)scale(0.1 -0.1)">
       <use xlink:href="#DejaVuSans-50"/>
       <use x="63.623047" xlink:href="#DejaVuSans-53"/>
      </g>
     </g>
    </g>
    <g id="xtick_26">
     <g id="line2d_26">
      <g>
       <use style="stroke:#000000;stroke-width:0.8;" x="496.754237" xlink:href="#m8ee9d6855f" y="630"/>
      </g>
     </g>
     <g id="text_26">
      <!-- 26 -->
      <g transform="translate(490.391737 644.598438)scale(0.1 -0.1)">
       <use xlink:href="#DejaVuSans-50"/>
       <use x="63.623047" xlink:href="#DejaVuSans-54"/>
      </g>
     </g>
    </g>
    <g id="xtick_27">
     <g id="line2d_27">
      <g>
       <use style="stroke:#000000;stroke-width:0.8;" x="510.940678" xlink:href="#m8ee9d6855f" y="630"/>
      </g>
     </g>
     <g id="text_27">
      <!-- 27 -->
      <g transform="translate(504.578178 644.598438)scale(0.1 -0.1)">
       <use xlink:href="#DejaVuSans-50"/>
       <use x="63.623047" xlink:href="#DejaVuSans-55"/>
      </g>
     </g>
    </g>
    <g id="xtick_28">
     <g id="line2d_28">
      <g>
       <use style="stroke:#000000;stroke-width:0.8;" x="525.127119" xlink:href="#m8ee9d6855f" y="630"/>
      </g>
     </g>
     <g id="text_28">
      <!-- 28 -->
      <g transform="translate(518.764619 644.598438)scale(0.1 -0.1)">
       <use xlink:href="#DejaVuSans-50"/>
       <use x="63.623047" xlink:href="#DejaVuSans-56"/>
      </g>
     </g>
    </g>
    <g id="xtick_29">
     <g id="line2d_29">
      <g>
       <use style="stroke:#000000;stroke-width:0.8;" x="539.313559" xlink:href="#m8ee9d6855f" y="630"/>
      </g>
     </g>
     <g id="text_29">
      <!-- 29 -->
      <g transform="translate(532.951059 644.598438)scale(0.1 -0.1)">
       <use xlink:href="#DejaVuSans-50"/>
       <use x="63.623047" xlink:href="#DejaVuSans-57"/>
      </g>
     </g>
    </g>
    <g id="xtick_30">
     <g id="line2d_30">
      <g>
       <use style="stroke:#000000;stroke-width:0.8;" x="553.5" xlink:href="#m8ee9d6855f" y="630"/>
      </g>
     </g>
     <g id="text_30">
      <!-- 30 -->
      <g transform="translate(547.1375 644.598438)scale(0.1 -0.1)">
       <use xlink:href="#DejaVuSans-51"/>
       <use x="63.623047" xlink:href="#DejaVuSans-48"/>
      </g>
     </g>
    </g>
    <g id="xtick_31">
     <g id="line2d_31">
      <g>
       <use style="stroke:#000000;stroke-width:0.8;" x="567.686441" xlink:href="#m8ee9d6855f" y="630"/>
      </g>
     </g>
     <g id="text_31">
      <!-- 31 -->
      <g transform="translate(561.323941 644.598438)scale(0.1 -0.1)">
       <use xlink:href="#DejaVuSans-51"/>
       <use x="63.623047" xlink:href="#DejaVuSans-49"/>
      </g>
     </g>
    </g>
    <g id="xtick_32">
     <g id="line2d_32">
      <g>
       <use style="stroke:#000000;stroke-width:0.8;" x="581.872881" xlink:href="#m8ee9d6855f" y="630"/>
      </g>
     </g>
     <g id="text_32">
      <!-- 32 -->
      <g transform="translate(575.510381 644.598438)scale(0.1 -0.1)">
       <use xlink:href="#DejaVuSans-51"/>
       <use x="63.623047" xlink:href="#DejaVuSans-50"/>
      </g>
     </g>
    </g>
    <g id="xtick_33">
     <g id="line2d_33">
      <g>
       <use style="stroke:#000000;stroke-width:0.8;" x="596.059322" xlink:href="#m8ee9d6855f" y="630"/>
      </g>
     </g>
     <g id="text_33">
      <!-- 33 -->
      <g transform="translate(589.696822 644.598438)scale(0.1 -0.1)">
       <use xlink:href="#DejaVuSans-51"/>
       <use x="63.623047" xlink:href="#DejaVuSans-51"/>
      </g>
     </g>
    </g>
    <g id="xtick_34">
     <g id="line2d_34">
      <g>
       <use style="stroke:#000000;stroke-width:0.8;" x="610.245763" xlink:href="#m8ee9d6855f" y="630"/>
      </g>
     </g>
     <g id="text_34">
      <!-- 34 -->
      <g transform="translate(603.883263 644.598438)scale(0.1 -0.1)">
       <use xlink:href="#DejaVuSans-51"/>
       <use x="63.623047" xlink:href="#DejaVuSans-52"/>
      </g>
     </g>
    </g>
    <g id="xtick_35">
     <g id="line2d_35">
      <g>
       <use style="stroke:#000000;stroke-width:0.8;" x="624.432203" xlink:href="#m8ee9d6855f" y="630"/>
      </g>
     </g>
     <g id="text_35">
      <!-- 35 -->
      <g transform="translate(618.069703 644.598438)scale(0.1 -0.1)">
       <use xlink:href="#DejaVuSans-51"/>
       <use x="63.623047" xlink:href="#DejaVuSans-53"/>
      </g>
     </g>
    </g>
    <g id="xtick_36">
     <g id="line2d_36">
      <g>
       <use style="stroke:#000000;stroke-width:0.8;" x="638.618644" xlink:href="#m8ee9d6855f" y="630"/>
      </g>
     </g>
     <g id="text_36">
      <!-- 36 -->
      <g transform="translate(632.256144 644.598438)scale(0.1 -0.1)">
       <use xlink:href="#DejaVuSans-51"/>
       <use x="63.623047" xlink:href="#DejaVuSans-54"/>
      </g>
     </g>
    </g>
    <g id="xtick_37">
     <g id="line2d_37">
      <g>
       <use style="stroke:#000000;stroke-width:0.8;" x="652.805085" xlink:href="#m8ee9d6855f" y="630"/>
      </g>
     </g>
     <g id="text_37">
      <!-- 37 -->
      <g transform="translate(646.442585 644.598438)scale(0.1 -0.1)">
       <use xlink:href="#DejaVuSans-51"/>
       <use x="63.623047" xlink:href="#DejaVuSans-55"/>
      </g>
     </g>
    </g>
    <g id="xtick_38">
     <g id="line2d_38">
      <g>
       <use style="stroke:#000000;stroke-width:0.8;" x="666.991525" xlink:href="#m8ee9d6855f" y="630"/>
      </g>
     </g>
     <g id="text_38">
      <!-- 38 -->
      <g transform="translate(660.629025 644.598438)scale(0.1 -0.1)">
       <use xlink:href="#DejaVuSans-51"/>
       <use x="63.623047" xlink:href="#DejaVuSans-56"/>
      </g>
     </g>
    </g>
    <g id="xtick_39">
     <g id="line2d_39">
      <g>
       <use style="stroke:#000000;stroke-width:0.8;" x="681.177966" xlink:href="#m8ee9d6855f" y="630"/>
      </g>
     </g>
     <g id="text_39">
      <!-- 39 -->
      <g transform="translate(674.815466 644.598438)scale(0.1 -0.1)">
       <use xlink:href="#DejaVuSans-51"/>
       <use x="63.623047" xlink:href="#DejaVuSans-57"/>
      </g>
     </g>
    </g>
    <g id="xtick_40">
     <g id="line2d_40">
      <g>
       <use style="stroke:#000000;stroke-width:0.8;" x="695.364407" xlink:href="#m8ee9d6855f" y="630"/>
      </g>
     </g>
     <g id="text_40">
      <!-- 40 -->
      <g transform="translate(689.001907 644.598438)scale(0.1 -0.1)">
       <use xlink:href="#DejaVuSans-52"/>
       <use x="63.623047" xlink:href="#DejaVuSans-48"/>
      </g>
     </g>
    </g>
    <g id="xtick_41">
     <g id="line2d_41">
      <g>
       <use style="stroke:#000000;stroke-width:0.8;" x="709.550847" xlink:href="#m8ee9d6855f" y="630"/>
      </g>
     </g>
     <g id="text_41">
      <!-- 41 -->
      <g transform="translate(703.188347 644.598438)scale(0.1 -0.1)">
       <use xlink:href="#DejaVuSans-52"/>
       <use x="63.623047" xlink:href="#DejaVuSans-49"/>
      </g>
     </g>
    </g>
    <g id="xtick_42">
     <g id="line2d_42">
      <g>
       <use style="stroke:#000000;stroke-width:0.8;" x="723.737288" xlink:href="#m8ee9d6855f" y="630"/>
      </g>
     </g>
     <g id="text_42">
      <!-- 42 -->
      <g transform="translate(717.374788 644.598438)scale(0.1 -0.1)">
       <use xlink:href="#DejaVuSans-52"/>
       <use x="63.623047" xlink:href="#DejaVuSans-50"/>
      </g>
     </g>
    </g>
    <g id="xtick_43">
     <g id="line2d_43">
      <g>
       <use style="stroke:#000000;stroke-width:0.8;" x="737.923729" xlink:href="#m8ee9d6855f" y="630"/>
      </g>
     </g>
     <g id="text_43">
      <!-- 43 -->
      <g transform="translate(731.561229 644.598438)scale(0.1 -0.1)">
       <use xlink:href="#DejaVuSans-52"/>
       <use x="63.623047" xlink:href="#DejaVuSans-51"/>
      </g>
     </g>
    </g>
    <g id="xtick_44">
     <g id="line2d_44">
      <g>
       <use style="stroke:#000000;stroke-width:0.8;" x="752.110169" xlink:href="#m8ee9d6855f" y="630"/>
      </g>
     </g>
     <g id="text_44">
      <!-- 44 -->
      <g transform="translate(745.747669 644.598438)scale(0.1 -0.1)">
       <use xlink:href="#DejaVuSans-52"/>
       <use x="63.623047" xlink:href="#DejaVuSans-52"/>
      </g>
     </g>
    </g>
    <g id="xtick_45">
     <g id="line2d_45">
      <g>
       <use style="stroke:#000000;stroke-width:0.8;" x="766.29661" xlink:href="#m8ee9d6855f" y="630"/>
      </g>
     </g>
     <g id="text_45">
      <!-- 45 -->
      <g transform="translate(759.93411 644.598438)scale(0.1 -0.1)">
       <use xlink:href="#DejaVuSans-52"/>
       <use x="63.623047" xlink:href="#DejaVuSans-53"/>
      </g>
     </g>
    </g>
    <g id="xtick_46">
     <g id="line2d_46">
      <g>
       <use style="stroke:#000000;stroke-width:0.8;" x="780.483051" xlink:href="#m8ee9d6855f" y="630"/>
      </g>
     </g>
     <g id="text_46">
      <!-- 46 -->
      <g transform="translate(774.120551 644.598438)scale(0.1 -0.1)">
       <use xlink:href="#DejaVuSans-52"/>
       <use x="63.623047" xlink:href="#DejaVuSans-54"/>
      </g>
     </g>
    </g>
    <g id="xtick_47">
     <g id="line2d_47">
      <g>
       <use style="stroke:#000000;stroke-width:0.8;" x="794.669492" xlink:href="#m8ee9d6855f" y="630"/>
      </g>
     </g>
     <g id="text_47">
      <!-- 47 -->
      <g transform="translate(788.306992 644.598438)scale(0.1 -0.1)">
       <use xlink:href="#DejaVuSans-52"/>
       <use x="63.623047" xlink:href="#DejaVuSans-55"/>
      </g>
     </g>
    </g>
    <g id="xtick_48">
     <g id="line2d_48">
      <g>
       <use style="stroke:#000000;stroke-width:0.8;" x="808.855932" xlink:href="#m8ee9d6855f" y="630"/>
      </g>
     </g>
     <g id="text_48">
      <!-- 48 -->
      <g transform="translate(802.493432 644.598438)scale(0.1 -0.1)">
       <use xlink:href="#DejaVuSans-52"/>
       <use x="63.623047" xlink:href="#DejaVuSans-56"/>
      </g>
     </g>
    </g>
    <g id="xtick_49">
     <g id="line2d_49">
      <g>
       <use style="stroke:#000000;stroke-width:0.8;" x="823.042373" xlink:href="#m8ee9d6855f" y="630"/>
      </g>
     </g>
     <g id="text_49">
      <!-- 49 -->
      <g transform="translate(816.679873 644.598438)scale(0.1 -0.1)">
       <use xlink:href="#DejaVuSans-52"/>
       <use x="63.623047" xlink:href="#DejaVuSans-57"/>
      </g>
     </g>
    </g>
    <g id="xtick_50">
     <g id="line2d_50">
      <g>
       <use style="stroke:#000000;stroke-width:0.8;" x="837.228814" xlink:href="#m8ee9d6855f" y="630"/>
      </g>
     </g>
     <g id="text_50">
      <!-- 50 -->
      <g transform="translate(830.866314 644.598438)scale(0.1 -0.1)">
       <use xlink:href="#DejaVuSans-53"/>
       <use x="63.623047" xlink:href="#DejaVuSans-48"/>
      </g>
     </g>
    </g>
    <g id="xtick_51">
     <g id="line2d_51">
      <g>
       <use style="stroke:#000000;stroke-width:0.8;" x="851.415254" xlink:href="#m8ee9d6855f" y="630"/>
      </g>
     </g>
     <g id="text_51">
      <!-- 51 -->
      <g transform="translate(845.052754 644.598438)scale(0.1 -0.1)">
       <use xlink:href="#DejaVuSans-53"/>
       <use x="63.623047" xlink:href="#DejaVuSans-49"/>
      </g>
     </g>
    </g>
    <g id="xtick_52">
     <g id="line2d_52">
      <g>
       <use style="stroke:#000000;stroke-width:0.8;" x="865.601695" xlink:href="#m8ee9d6855f" y="630"/>
      </g>
     </g>
     <g id="text_52">
      <!-- 52 -->
      <g transform="translate(859.239195 644.598438)scale(0.1 -0.1)">
       <use xlink:href="#DejaVuSans-53"/>
       <use x="63.623047" xlink:href="#DejaVuSans-50"/>
      </g>
     </g>
    </g>
    <g id="xtick_53">
     <g id="line2d_53">
      <g>
       <use style="stroke:#000000;stroke-width:0.8;" x="879.788136" xlink:href="#m8ee9d6855f" y="630"/>
      </g>
     </g>
     <g id="text_53">
      <!-- 53 -->
      <g transform="translate(873.425636 644.598438)scale(0.1 -0.1)">
       <use xlink:href="#DejaVuSans-53"/>
       <use x="63.623047" xlink:href="#DejaVuSans-51"/>
      </g>
     </g>
    </g>
    <g id="xtick_54">
     <g id="line2d_54">
      <g>
       <use style="stroke:#000000;stroke-width:0.8;" x="893.974576" xlink:href="#m8ee9d6855f" y="630"/>
      </g>
     </g>
     <g id="text_54">
      <!-- 54 -->
      <g transform="translate(887.612076 644.598438)scale(0.1 -0.1)">
       <use xlink:href="#DejaVuSans-53"/>
       <use x="63.623047" xlink:href="#DejaVuSans-52"/>
      </g>
     </g>
    </g>
    <g id="xtick_55">
     <g id="line2d_55">
      <g>
       <use style="stroke:#000000;stroke-width:0.8;" x="908.161017" xlink:href="#m8ee9d6855f" y="630"/>
      </g>
     </g>
     <g id="text_55">
      <!-- 55 -->
      <g transform="translate(901.798517 644.598438)scale(0.1 -0.1)">
       <use xlink:href="#DejaVuSans-53"/>
       <use x="63.623047" xlink:href="#DejaVuSans-53"/>
      </g>
     </g>
    </g>
    <g id="xtick_56">
     <g id="line2d_56">
      <g>
       <use style="stroke:#000000;stroke-width:0.8;" x="922.347458" xlink:href="#m8ee9d6855f" y="630"/>
      </g>
     </g>
     <g id="text_56">
      <!-- 56 -->
      <g transform="translate(915.984958 644.598438)scale(0.1 -0.1)">
       <use xlink:href="#DejaVuSans-53"/>
       <use x="63.623047" xlink:href="#DejaVuSans-54"/>
      </g>
     </g>
    </g>
    <g id="xtick_57">
     <g id="line2d_57">
      <g>
       <use style="stroke:#000000;stroke-width:0.8;" x="936.533898" xlink:href="#m8ee9d6855f" y="630"/>
      </g>
     </g>
     <g id="text_57">
      <!-- 57 -->
      <g transform="translate(930.171398 644.598438)scale(0.1 -0.1)">
       <use xlink:href="#DejaVuSans-53"/>
       <use x="63.623047" xlink:href="#DejaVuSans-55"/>
      </g>
     </g>
    </g>
    <g id="xtick_58">
     <g id="line2d_58">
      <g>
       <use style="stroke:#000000;stroke-width:0.8;" x="950.720339" xlink:href="#m8ee9d6855f" y="630"/>
      </g>
     </g>
     <g id="text_58">
      <!-- 58 -->
      <g transform="translate(944.357839 644.598438)scale(0.1 -0.1)">
       <use xlink:href="#DejaVuSans-53"/>
       <use x="63.623047" xlink:href="#DejaVuSans-56"/>
      </g>
     </g>
    </g>
    <g id="xtick_59">
     <g id="line2d_59">
      <g>
       <use style="stroke:#000000;stroke-width:0.8;" x="964.90678" xlink:href="#m8ee9d6855f" y="630"/>
      </g>
     </g>
     <g id="text_59">
      <!-- 59 -->
      <g transform="translate(958.54428 644.598438)scale(0.1 -0.1)">
       <use xlink:href="#DejaVuSans-53"/>
       <use x="63.623047" xlink:href="#DejaVuSans-57"/>
      </g>
     </g>
    </g>
    <g id="text_60">
     <!-- Number of tracks -->
     <g transform="translate(510.0875 658.276562)scale(0.1 -0.1)">
      <defs>
       <path d="M 9.8125 72.90625 
L 23.09375 72.90625 
L 55.421875 11.921875 
L 55.421875 72.90625 
L 64.984375 72.90625 
L 64.984375 0 
L 51.703125 0 
L 19.390625 60.984375 
L 19.390625 0 
L 9.8125 0 
z
" id="DejaVuSans-78"/>
       <path d="M 8.5 21.578125 
L 8.5 54.6875 
L 17.484375 54.6875 
L 17.484375 21.921875 
Q 17.484375 14.15625 20.5 10.265625 
Q 23.53125 6.390625 29.59375 6.390625 
Q 36.859375 6.390625 41.078125 11.03125 
Q 45.3125 15.671875 45.3125 23.6875 
L 45.3125 54.6875 
L 54.296875 54.6875 
L 54.296875 0 
L 45.3125 0 
L 45.3125 8.40625 
Q 42.046875 3.421875 37.71875 1 
Q 33.40625 -1.421875 27.6875 -1.421875 
Q 18.265625 -1.421875 13.375 4.4375 
Q 8.5 10.296875 8.5 21.578125 
z
M 31.109375 56 
z
" id="DejaVuSans-117"/>
       <path d="M 52 44.1875 
Q 55.375 50.25 60.0625 53.125 
Q 64.75 56 71.09375 56 
Q 79.640625 56 84.28125 50.015625 
Q 88.921875 44.046875 88.921875 33.015625 
L 88.921875 0 
L 79.890625 0 
L 79.890625 32.71875 
Q 79.890625 40.578125 77.09375 44.375 
Q 74.3125 48.1875 68.609375 48.1875 
Q 61.625 48.1875 57.5625 43.546875 
Q 53.515625 38.921875 53.515625 30.90625 
L 53.515625 0 
L 44.484375 0 
L 44.484375 32.71875 
Q 44.484375 40.625 41.703125 44.40625 
Q 38.921875 48.1875 33.109375 48.1875 
Q 26.21875 48.1875 22.15625 43.53125 
Q 18.109375 38.875 18.109375 30.90625 
L 18.109375 0 
L 9.078125 0 
L 9.078125 54.6875 
L 18.109375 54.6875 
L 18.109375 46.1875 
Q 21.1875 51.21875 25.484375 53.609375 
Q 29.78125 56 35.6875 56 
Q 41.65625 56 45.828125 52.96875 
Q 50 49.953125 52 44.1875 
z
" id="DejaVuSans-109"/>
       <path d="M 48.6875 27.296875 
Q 48.6875 37.203125 44.609375 42.84375 
Q 40.53125 48.484375 33.40625 48.484375 
Q 26.265625 48.484375 22.1875 42.84375 
Q 18.109375 37.203125 18.109375 27.296875 
Q 18.109375 17.390625 22.1875 11.75 
Q 26.265625 6.109375 33.40625 6.109375 
Q 40.53125 6.109375 44.609375 11.75 
Q 48.6875 17.390625 48.6875 27.296875 
z
M 18.109375 46.390625 
Q 20.953125 51.265625 25.265625 53.625 
Q 29.59375 56 35.59375 56 
Q 45.5625 56 51.78125 48.09375 
Q 58.015625 40.1875 58.015625 27.296875 
Q 58.015625 14.40625 51.78125 6.484375 
Q 45.5625 -1.421875 35.59375 -1.421875 
Q 29.59375 -1.421875 25.265625 0.953125 
Q 20.953125 3.328125 18.109375 8.203125 
L 18.109375 0 
L 9.078125 0 
L 9.078125 75.984375 
L 18.109375 75.984375 
z
" id="DejaVuSans-98"/>
       <path d="M 56.203125 29.59375 
L 56.203125 25.203125 
L 14.890625 25.203125 
Q 15.484375 15.921875 20.484375 11.0625 
Q 25.484375 6.203125 34.421875 6.203125 
Q 39.59375 6.203125 44.453125 7.46875 
Q 49.3125 8.734375 54.109375 11.28125 
L 54.109375 2.78125 
Q 49.265625 0.734375 44.1875 -0.34375 
Q 39.109375 -1.421875 33.890625 -1.421875 
Q 20.796875 -1.421875 13.15625 6.1875 
Q 5.515625 13.8125 5.515625 26.8125 
Q 5.515625 40.234375 12.765625 48.109375 
Q 20.015625 56 32.328125 56 
Q 43.359375 56 49.78125 48.890625 
Q 56.203125 41.796875 56.203125 29.59375 
z
M 47.21875 32.234375 
Q 47.125 39.59375 43.09375 43.984375 
Q 39.0625 48.390625 32.421875 48.390625 
Q 24.90625 48.390625 20.390625 44.140625 
Q 15.875 39.890625 15.1875 32.171875 
z
" id="DejaVuSans-101"/>
       <path d="M 41.109375 46.296875 
Q 39.59375 47.171875 37.8125 47.578125 
Q 36.03125 48 33.890625 48 
Q 26.265625 48 22.1875 43.046875 
Q 18.109375 38.09375 18.109375 28.8125 
L 18.109375 0 
L 9.078125 0 
L 9.078125 54.6875 
L 18.109375 54.6875 
L 18.109375 46.1875 
Q 20.953125 51.171875 25.484375 53.578125 
Q 30.03125 56 36.53125 56 
Q 37.453125 56 38.578125 55.875 
Q 39.703125 55.765625 41.0625 55.515625 
z
" id="DejaVuSans-114"/>
       <path id="DejaVuSans-32"/>
       <path d="M 30.609375 48.390625 
Q 23.390625 48.390625 19.1875 42.75 
Q 14.984375 37.109375 14.984375 27.296875 
Q 14.984375 17.484375 19.15625 11.84375 
Q 23.34375 6.203125 30.609375 6.203125 
Q 37.796875 6.203125 41.984375 11.859375 
Q 46.1875 17.53125 46.1875 27.296875 
Q 46.1875 37.015625 41.984375 42.703125 
Q 37.796875 48.390625 30.609375 48.390625 
z
M 30.609375 56 
Q 42.328125 56 49.015625 48.375 
Q 55.71875 40.765625 55.71875 27.296875 
Q 55.71875 13.875 49.015625 6.21875 
Q 42.328125 -1.421875 30.609375 -1.421875 
Q 18.84375 -1.421875 12.171875 6.21875 
Q 5.515625 13.875 5.515625 27.296875 
Q 5.515625 40.765625 12.171875 48.375 
Q 18.84375 56 30.609375 56 
z
" id="DejaVuSans-111"/>
       <path d="M 37.109375 75.984375 
L 37.109375 68.5 
L 28.515625 68.5 
Q 23.6875 68.5 21.796875 66.546875 
Q 19.921875 64.59375 19.921875 59.515625 
L 19.921875 54.6875 
L 34.71875 54.6875 
L 34.71875 47.703125 
L 19.921875 47.703125 
L 19.921875 0 
L 10.890625 0 
L 10.890625 47.703125 
L 2.296875 47.703125 
L 2.296875 54.6875 
L 10.890625 54.6875 
L 10.890625 58.5 
Q 10.890625 67.625 15.140625 71.796875 
Q 19.390625 75.984375 28.609375 75.984375 
z
" id="DejaVuSans-102"/>
       <path d="M 18.3125 70.21875 
L 18.3125 54.6875 
L 36.8125 54.6875 
L 36.8125 47.703125 
L 18.3125 47.703125 
L 18.3125 18.015625 
Q 18.3125 11.328125 20.140625 9.421875 
Q 21.96875 7.515625 27.59375 7.515625 
L 36.8125 7.515625 
L 36.8125 0 
L 27.59375 0 
Q 17.1875 0 13.234375 3.875 
Q 9.28125 7.765625 9.28125 18.015625 
L 9.28125 47.703125 
L 2.6875 47.703125 
L 2.6875 54.6875 
L 9.28125 54.6875 
L 9.28125 70.21875 
z
" id="DejaVuSans-116"/>
       <path d="M 34.28125 27.484375 
Q 23.390625 27.484375 19.1875 25 
Q 14.984375 22.515625 14.984375 16.5 
Q 14.984375 11.71875 18.140625 8.90625 
Q 21.296875 6.109375 26.703125 6.109375 
Q 34.1875 6.109375 38.703125 11.40625 
Q 43.21875 16.703125 43.21875 25.484375 
L 43.21875 27.484375 
z
M 52.203125 31.203125 
L 52.203125 0 
L 43.21875 0 
L 43.21875 8.296875 
Q 40.140625 3.328125 35.546875 0.953125 
Q 30.953125 -1.421875 24.3125 -1.421875 
Q 15.921875 -1.421875 10.953125 3.296875 
Q 6 8.015625 6 15.921875 
Q 6 25.140625 12.171875 29.828125 
Q 18.359375 34.515625 30.609375 34.515625 
L 43.21875 34.515625 
L 43.21875 35.40625 
Q 43.21875 41.609375 39.140625 45 
Q 35.0625 48.390625 27.6875 48.390625 
Q 23 48.390625 18.546875 47.265625 
Q 14.109375 46.140625 10.015625 43.890625 
L 10.015625 52.203125 
Q 14.9375 54.109375 19.578125 55.046875 
Q 24.21875 56 28.609375 56 
Q 40.484375 56 46.34375 49.84375 
Q 52.203125 43.703125 52.203125 31.203125 
z
" id="DejaVuSans-97"/>
       <path d="M 48.78125 52.59375 
L 48.78125 44.1875 
Q 44.96875 46.296875 41.140625 47.34375 
Q 37.3125 48.390625 33.40625 48.390625 
Q 24.65625 48.390625 19.8125 42.84375 
Q 14.984375 37.3125 14.984375 27.296875 
Q 14.984375 17.28125 19.8125 11.734375 
Q 24.65625 6.203125 33.40625 6.203125 
Q 37.3125 6.203125 41.140625 7.25 
Q 44.96875 8.296875 48.78125 10.40625 
L 48.78125 2.09375 
Q 45.015625 0.34375 40.984375 -0.53125 
Q 36.96875 -1.421875 32.421875 -1.421875 
Q 20.0625 -1.421875 12.78125 6.34375 
Q 5.515625 14.109375 5.515625 27.296875 
Q 5.515625 40.671875 12.859375 48.328125 
Q 20.21875 56 33.015625 56 
Q 37.15625 56 41.109375 55.140625 
Q 45.0625 54.296875 48.78125 52.59375 
z
" id="DejaVuSans-99"/>
       <path d="M 9.078125 75.984375 
L 18.109375 75.984375 
L 18.109375 31.109375 
L 44.921875 54.6875 
L 56.390625 54.6875 
L 27.390625 29.109375 
L 57.625 0 
L 45.90625 0 
L 18.109375 26.703125 
L 18.109375 0 
L 9.078125 0 
z
" id="DejaVuSans-107"/>
       <path d="M 44.28125 53.078125 
L 44.28125 44.578125 
Q 40.484375 46.53125 36.375 47.5 
Q 32.28125 48.484375 27.875 48.484375 
Q 21.1875 48.484375 17.84375 46.4375 
Q 14.5 44.390625 14.5 40.28125 
Q 14.5 37.15625 16.890625 35.375 
Q 19.28125 33.59375 26.515625 31.984375 
L 29.59375 31.296875 
Q 39.15625 29.25 43.1875 25.515625 
Q 47.21875 21.78125 47.21875 15.09375 
Q 47.21875 7.46875 41.1875 3.015625 
Q 35.15625 -1.421875 24.609375 -1.421875 
Q 20.21875 -1.421875 15.453125 -0.5625 
Q 10.6875 0.296875 5.421875 2 
L 5.421875 11.28125 
Q 10.40625 8.6875 15.234375 7.390625 
Q 20.0625 6.109375 24.8125 6.109375 
Q 31.15625 6.109375 34.5625 8.28125 
Q 37.984375 10.453125 37.984375 14.40625 
Q 37.984375 18.0625 35.515625 20.015625 
Q 33.0625 21.96875 24.703125 23.78125 
L 21.578125 24.515625 
Q 13.234375 26.265625 9.515625 29.90625 
Q 5.8125 33.546875 5.8125 39.890625 
Q 5.8125 47.609375 11.28125 51.796875 
Q 16.75 56 26.8125 56 
Q 31.78125 56 36.171875 55.265625 
Q 40.578125 54.546875 44.28125 53.078125 
z
" id="DejaVuSans-115"/>
      </defs>
      <use xlink:href="#DejaVuSans-78"/>
      <use x="74.804688" xlink:href="#DejaVuSans-117"/>
      <use x="138.183594" xlink:href="#DejaVuSans-109"/>
      <use x="235.595703" xlink:href="#DejaVuSans-98"/>
      <use x="299.072266" xlink:href="#DejaVuSans-101"/>
      <use x="360.595703" xlink:href="#DejaVuSans-114"/>
      <use x="401.708984" xlink:href="#DejaVuSans-32"/>
      <use x="433.496094" xlink:href="#DejaVuSans-111"/>
      <use x="494.677734" xlink:href="#DejaVuSans-102"/>
      <use x="529.882812" xlink:href="#DejaVuSans-32"/>
      <use x="561.669922" xlink:href="#DejaVuSans-116"/>
      <use x="600.878906" xlink:href="#DejaVuSans-114"/>
      <use x="641.992188" xlink:href="#DejaVuSans-97"/>
      <use x="703.271484" xlink:href="#DejaVuSans-99"/>
      <use x="758.251953" xlink:href="#DejaVuSans-107"/>
      <use x="816.162109" xlink:href="#DejaVuSans-115"/>
     </g>
    </g>
   </g>
   <g id="matplotlib.axis_2">
    <g id="ytick_1">
     <g id="line2d_60">
      <defs>
       <path d="M 0 0 
L -3.5 0 
" id="m3803580a5b" style="stroke:#000000;stroke-width:0.8;"/>
      </defs>
      <g>
       <use style="stroke:#000000;stroke-width:0.8;" x="135" xlink:href="#m3803580a5b" y="630"/>
      </g>
     </g>
     <g id="text_61">
      <!-- 0 -->
      <g transform="translate(121.6375 633.799219)scale(0.1 -0.1)">
       <use xlink:href="#DejaVuSans-48"/>
      </g>
     </g>
    </g>
    <g id="ytick_2">
     <g id="line2d_61">
      <g>
       <use style="stroke:#000000;stroke-width:0.8;" x="135" xlink:href="#m3803580a5b" y="538.772813"/>
      </g>
     </g>
     <g id="text_62">
      <!-- 200 -->
      <g transform="translate(108.9125 542.572032)scale(0.1 -0.1)">
       <use xlink:href="#DejaVuSans-50"/>
       <use x="63.623047" xlink:href="#DejaVuSans-48"/>
       <use x="127.246094" xlink:href="#DejaVuSans-48"/>
      </g>
     </g>
    </g>
    <g id="ytick_3">
     <g id="line2d_62">
      <g>
       <use style="stroke:#000000;stroke-width:0.8;" x="135" xlink:href="#m3803580a5b" y="447.545626"/>
      </g>
     </g>
     <g id="text_63">
      <!-- 400 -->
      <g transform="translate(108.9125 451.344845)scale(0.1 -0.1)">
       <use xlink:href="#DejaVuSans-52"/>
       <use x="63.623047" xlink:href="#DejaVuSans-48"/>
       <use x="127.246094" xlink:href="#DejaVuSans-48"/>
      </g>
     </g>
    </g>
    <g id="ytick_4">
     <g id="line2d_63">
      <g>
       <use style="stroke:#000000;stroke-width:0.8;" x="135" xlink:href="#m3803580a5b" y="356.318439"/>
      </g>
     </g>
     <g id="text_64">
      <!-- 600 -->
      <g transform="translate(108.9125 360.117658)scale(0.1 -0.1)">
       <use xlink:href="#DejaVuSans-54"/>
       <use x="63.623047" xlink:href="#DejaVuSans-48"/>
       <use x="127.246094" xlink:href="#DejaVuSans-48"/>
      </g>
     </g>
    </g>
    <g id="ytick_5">
     <g id="line2d_64">
      <g>
       <use style="stroke:#000000;stroke-width:0.8;" x="135" xlink:href="#m3803580a5b" y="265.091252"/>
      </g>
     </g>
     <g id="text_65">
      <!-- 800 -->
      <g transform="translate(108.9125 268.890471)scale(0.1 -0.1)">
       <use xlink:href="#DejaVuSans-56"/>
       <use x="63.623047" xlink:href="#DejaVuSans-48"/>
       <use x="127.246094" xlink:href="#DejaVuSans-48"/>
      </g>
     </g>
    </g>
    <g id="ytick_6">
     <g id="line2d_65">
      <g>
       <use style="stroke:#000000;stroke-width:0.8;" x="135" xlink:href="#m3803580a5b" y="173.864065"/>
      </g>
     </g>
     <g id="text_66">
      <!-- 1000 -->
      <g transform="translate(102.55 177.663284)scale(0.1 -0.1)">
       <use xlink:href="#DejaVuSans-49"/>
       <use x="63.623047" xlink:href="#DejaVuSans-48"/>
       <use x="127.246094" xlink:href="#DejaVuSans-48"/>
       <use x="190.869141" xlink:href="#DejaVuSans-48"/>
      </g>
     </g>
    </g>
    <g id="text_67">
     <!-- Number of jets -->
     <g transform="translate(96.470312 395.314062)rotate(-90)scale(0.1 -0.1)">
      <defs>
       <path d="M 9.421875 54.6875 
L 18.40625 54.6875 
L 18.40625 -0.984375 
Q 18.40625 -11.421875 14.421875 -16.109375 
Q 10.453125 -20.796875 1.609375 -20.796875 
L -1.8125 -20.796875 
L -1.8125 -13.1875 
L 0.59375 -13.1875 
Q 5.71875 -13.1875 7.5625 -10.8125 
Q 9.421875 -8.453125 9.421875 -0.984375 
z
M 9.421875 75.984375 
L 18.40625 75.984375 
L 18.40625 64.59375 
L 9.421875 64.59375 
z
" id="DejaVuSans-106"/>
      </defs>
      <use xlink:href="#DejaVuSans-78"/>
      <use x="74.804688" xlink:href="#DejaVuSans-117"/>
      <use x="138.183594" xlink:href="#DejaVuSans-109"/>
      <use x="235.595703" xlink:href="#DejaVuSans-98"/>
      <use x="299.072266" xlink:href="#DejaVuSans-101"/>
      <use x="360.595703" xlink:href="#DejaVuSans-114"/>
      <use x="401.708984" xlink:href="#DejaVuSans-32"/>
      <use x="433.496094" xlink:href="#DejaVuSans-111"/>
      <use x="494.677734" xlink:href="#DejaVuSans-102"/>
      <use x="529.882812" xlink:href="#DejaVuSans-32"/>
      <use x="561.669922" xlink:href="#DejaVuSans-106"/>
      <use x="589.453125" xlink:href="#DejaVuSans-101"/>
      <use x="650.976562" xlink:href="#DejaVuSans-116"/>
      <use x="690.185547" xlink:href="#DejaVuSans-115"/>
     </g>
    </g>
   </g>
   <g id="patch_3">
    <path clip-path="url(#pc39f2c0bbc)" d="M 135 630 
L 135 532.843046 
L 149.186441 532.843046 
L 149.186441 553.369163 
L 163.372881 553.369163 
L 163.372881 493.615356 
L 177.559322 493.615356 
L 177.559322 443.440403 
L 191.745763 443.440403 
L 191.745763 369.546381 
L 205.932203 369.546381 
L 205.932203 282.424418 
L 220.118644 282.424418 
L 220.118644 189.372687 
L 234.305085 189.372687 
L 234.305085 125.513656 
L 248.491525 125.513656 
L 248.491525 112.285714 
L 262.677966 112.285714 
L 262.677966 114.566394 
L 276.864407 114.566394 
L 276.864407 146.039773 
L 291.050847 146.039773 
L 291.050847 153.337948 
L 305.237288 153.337948 
L 305.237288 184.811328 
L 319.423729 184.811328 
L 319.423729 254.14399 
L 333.610169 254.14399 
L 333.610169 295.65236 
L 347.79661 295.65236 
L 347.79661 341.722089 
L 361.983051 341.722089 
L 361.983051 390.528634 
L 376.169492 390.528634 
L 376.169492 444.352675 
L 390.355932 444.352675 
L 390.355932 484.492637 
L 404.542373 484.492637 
L 404.542373 479.019006 
L 418.728814 479.019006 
L 418.728814 531.018502 
L 432.915254 531.018502 
L 432.915254 552.456891 
L 447.101695 552.456891 
L 447.101695 561.57961 
L 461.288136 561.57961 
L 461.288136 578.456639 
L 475.474576 578.456639 
L 475.474576 592.596853 
L 489.661017 592.596853 
L 489.661017 598.526621 
L 503.847458 598.526621 
L 503.847458 606.737067 
L 518.033898 606.737067 
L 518.033898 611.298427 
L 532.220339 611.298427 
L 532.220339 618.596602 
L 546.40678 618.596602 
L 546.40678 617.68433 
L 560.59322 617.68433 
L 560.59322 625.894777 
L 574.779661 625.894777 
L 574.779661 621.789553 
L 588.966102 621.789553 
L 588.966102 628.175456 
L 603.152542 628.175456 
L 603.152542 627.263184 
L 617.338983 627.263184 
L 617.338983 629.087728 
L 631.525424 629.087728 
L 631.525424 628.631592 
L 645.711864 628.631592 
L 645.711864 629.543864 
L 659.898305 629.543864 
L 659.898305 629.543864 
L 674.084746 629.543864 
L 674.084746 630 
L 688.271186 630 
L 688.271186 629.543864 
L 702.457627 629.543864 
L 702.457627 630 
L 716.644068 630 
L 716.644068 630 
L 730.830508 630 
L 730.830508 630 
L 745.016949 630 
L 745.016949 630 
L 759.20339 630 
L 759.20339 630 
L 773.389831 630 
L 773.389831 630 
L 787.576271 630 
L 787.576271 630 
L 801.762712 630 
L 801.762712 630 
L 815.949153 630 
L 815.949153 630 
L 830.135593 630 
L 830.135593 630 
L 844.322034 630 
L 844.322034 630 
L 858.508475 630 
L 858.508475 630 
L 872.694915 630 
L 872.694915 630 
L 886.881356 630 
L 886.881356 630 
L 901.067797 630 
L 901.067797 630 
L 915.254237 630 
L 915.254237 630 
L 929.440678 630 
L 929.440678 630 
L 943.627119 630 
L 943.627119 630 
L 957.813559 630 
L 957.813559 630 
L 972 630 
L 972 630 
" style="fill:url(#hf6b279f9bb);stroke:#1f77b4;stroke-linejoin:miter;"/>
   </g>
   <g id="patch_4">
    <path clip-path="url(#pc39f2c0bbc)" d="M 135 630 
L 135 518.702832 
L 149.186441 518.702832 
L 149.186441 557.930522 
L 163.372881 557.930522 
L 163.372881 550.632347 
L 177.559322 550.632347 
L 177.559322 563.860289 
L 191.745763 563.860289 
L 191.745763 578.456639 
L 205.932203 578.456639 
L 205.932203 567.509377 
L 220.118644 567.509377 
L 220.118644 579.825047 
L 234.305085 579.825047 
L 234.305085 572.070736 
L 248.491525 572.070736 
L 248.491525 567.509377 
L 262.677966 567.509377 
L 262.677966 568.877785 
L 276.864407 568.877785 
L 276.864407 564.316425 
L 291.050847 564.316425 
L 291.050847 555.649843 
L 305.237288 555.649843 
L 305.237288 547.895532 
L 319.423729 547.895532 
L 319.423729 536.492133 
L 333.610169 536.492133 
L 333.610169 525.088735 
L 347.79661 525.088735 
L 347.79661 516.878288 
L 361.983051 516.878288 
L 361.983051 516.422152 
L 376.169492 516.422152 
L 376.169492 512.316929 
L 390.355932 512.316929 
L 390.355932 489.966268 
L 404.542373 489.966268 
L 404.542373 478.56287 
L 418.728814 478.56287 
L 418.728814 461.229704 
L 432.915254 461.229704 
L 432.915254 459.40516 
L 447.101695 459.40516 
L 447.101695 459.40516 
L 461.288136 459.40516 
L 461.288136 459.861296 
L 475.474576 459.861296 
L 475.474576 442.984267 
L 489.661017 442.984267 
L 489.661017 432.949276 
L 503.847458 432.949276 
L 503.847458 438.422907 
L 518.033898 438.422907 
L 518.033898 445.721082 
L 532.220339 445.721082 
L 532.220339 432.037004 
L 546.40678 432.037004 
L 546.40678 426.107237 
L 560.59322 426.107237 
L 560.59322 443.440403 
L 574.779661 443.440403 
L 574.779661 444.808811 
L 588.966102 444.808811 
L 588.966102 457.124481 
L 603.152542 457.124481 
L 603.152542 439.791315 
L 617.338983 439.791315 
L 617.338983 471.720831 
L 631.525424 471.720831 
L 631.525424 464.422656 
L 645.711864 464.422656 
L 645.711864 472.176967 
L 659.898305 472.176967 
L 659.898305 496.352171 
L 674.084746 496.352171 
L 674.084746 485.861045 
L 688.271186 485.861045 
L 688.271186 493.615356 
L 702.457627 493.615356 
L 702.457627 497.264443 
L 716.644068 497.264443 
L 716.644068 507.75557 
L 730.830508 507.75557 
L 730.830508 524.176463 
L 745.016949 524.176463 
L 745.016949 537.404405 
L 759.20339 537.404405 
L 759.20339 536.035997 
L 773.389831 536.035997 
L 773.389831 531.474638 
L 787.576271 531.474638 
L 787.576271 546.98326 
L 801.762712 546.98326 
L 801.762712 551.544619 
L 815.949153 551.544619 
L 815.949153 564.316425 
L 830.135593 564.316425 
L 830.135593 572.526872 
L 844.322034 572.526872 
L 844.322034 574.807552 
L 858.508475 574.807552 
L 858.508475 586.21095 
L 872.694915 586.21095 
L 872.694915 584.386407 
L 886.881356 584.386407 
L 886.881356 593.052989 
L 901.067797 593.052989 
L 901.067797 584.842542 
L 915.254237 584.842542 
L 915.254237 596.702077 
L 929.440678 596.702077 
L 929.440678 598.982756 
L 943.627119 598.982756 
L 943.627119 604.456388 
L 957.813559 604.456388 
L 957.813559 608.561611 
L 972 608.561611 
L 972 630 
" style="fill:url(#h7b41a51990);stroke:#ff7f0e;stroke-linejoin:miter;"/>
   </g>
   <g id="patch_5">
    <path d="M 135 630 
L 135 86.4 
" style="fill:none;stroke:#000000;stroke-linecap:square;stroke-linejoin:miter;stroke-width:0.8;"/>
   </g>
   <g id="patch_6">
    <path d="M 972 630 
L 972 86.4 
" style="fill:none;stroke:#000000;stroke-linecap:square;stroke-linejoin:miter;stroke-width:0.8;"/>
   </g>
   <g id="patch_7">
    <path d="M 135 630 
L 972 630 
" style="fill:none;stroke:#000000;stroke-linecap:square;stroke-linejoin:miter;stroke-width:0.8;"/>
   </g>
   <g id="patch_8">
    <path d="M 135 86.4 
L 972 86.4 
" style="fill:none;stroke:#000000;stroke-linecap:square;stroke-linejoin:miter;stroke-width:0.8;"/>
   </g>
   <g id="legend_1">
    <g id="patch_9">
     <path d="M 880.278125 161.1125 
L 958 161.1125 
Q 962 161.1125 962 157.1125 
L 962 100.4 
Q 962 96.4 958 96.4 
L 880.278125 96.4 
Q 876.278125 96.4 876.278125 100.4 
L 876.278125 157.1125 
Q 876.278125 161.1125 880.278125 161.1125 
z
" style="fill:#ffffff;opacity:0.8;stroke:#cccccc;stroke-linejoin:miter;"/>
    </g>
    <g id="patch_10">
     <path d="M 884.278125 119.596875 
L 924.278125 119.596875 
L 924.278125 105.596875 
L 884.278125 105.596875 
z
" style="fill:url(#hf6b279f9bb);stroke:#1f77b4;stroke-linejoin:miter;"/>
    </g>
    <g id="text_68">
     <!-- B -->
     <g transform="translate(940.278125 119.596875)scale(0.2 -0.2)">
      <defs>
       <path d="M 19.671875 34.8125 
L 19.671875 8.109375 
L 35.5 8.109375 
Q 43.453125 8.109375 47.28125 11.40625 
Q 51.125 14.703125 51.125 21.484375 
Q 51.125 28.328125 47.28125 31.5625 
Q 43.453125 34.8125 35.5 34.8125 
z
M 19.671875 64.796875 
L 19.671875 42.828125 
L 34.28125 42.828125 
Q 41.5 42.828125 45.03125 45.53125 
Q 48.578125 48.25 48.578125 53.8125 
Q 48.578125 59.328125 45.03125 62.0625 
Q 41.5 64.796875 34.28125 64.796875 
z
M 9.8125 72.90625 
L 35.015625 72.90625 
Q 46.296875 72.90625 52.390625 68.21875 
Q 58.5 63.53125 58.5 54.890625 
Q 58.5 48.1875 55.375 44.234375 
Q 52.25 40.28125 46.1875 39.3125 
Q 53.46875 37.75 57.5 32.78125 
Q 61.53125 27.828125 61.53125 20.40625 
Q 61.53125 10.640625 54.890625 5.3125 
Q 48.25 0 35.984375 0 
L 9.8125 0 
z
" id="DejaVuSans-66"/>
      </defs>
      <use xlink:href="#DejaVuSans-66"/>
     </g>
    </g>
    <g id="patch_11">
     <path d="M 884.278125 148.953125 
L 924.278125 148.953125 
L 924.278125 134.953125 
L 884.278125 134.953125 
z
" style="fill:url(#h7b41a51990);stroke:#ff7f0e;stroke-linejoin:miter;"/>
    </g>
    <g id="text_69">
     <!-- S -->
     <g transform="translate(940.278125 148.953125)scale(0.2 -0.2)">
      <defs>
       <path d="M 53.515625 70.515625 
L 53.515625 60.890625 
Q 47.90625 63.578125 42.921875 64.890625 
Q 37.9375 66.21875 33.296875 66.21875 
Q 25.25 66.21875 20.875 63.09375 
Q 16.5 59.96875 16.5 54.203125 
Q 16.5 49.359375 19.40625 46.890625 
Q 22.3125 44.4375 30.421875 42.921875 
L 36.375 41.703125 
Q 47.40625 39.59375 52.65625 34.296875 
Q 57.90625 29 57.90625 20.125 
Q 57.90625 9.515625 50.796875 4.046875 
Q 43.703125 -1.421875 29.984375 -1.421875 
Q 24.8125 -1.421875 18.96875 -0.25 
Q 13.140625 0.921875 6.890625 3.21875 
L 6.890625 13.375 
Q 12.890625 10.015625 18.65625 8.296875 
Q 24.421875 6.59375 29.984375 6.59375 
Q 38.421875 6.59375 43.015625 9.90625 
Q 47.609375 13.234375 47.609375 19.390625 
Q 47.609375 24.75 44.3125 27.78125 
Q 41.015625 30.8125 33.5 32.328125 
L 27.484375 33.5 
Q 16.453125 35.6875 11.515625 40.375 
Q 6.59375 45.0625 6.59375 53.421875 
Q 6.59375 63.09375 13.40625 68.65625 
Q 20.21875 74.21875 32.171875 74.21875 
Q 37.3125 74.21875 42.625 73.28125 
Q 47.953125 72.359375 53.515625 70.515625 
z
" id="DejaVuSans-83"/>
      </defs>
      <use xlink:href="#DejaVuSans-83"/>
     </g>
    </g>
   </g>
  </g>
 </g>
 <defs>
  <clipPath id="pc39f2c0bbc">
   <rect height="543.6" width="837" x="135" y="86.4"/>
  </clipPath>
 </defs>
 <defs>
  <pattern height="72" id="hf6b279f9bb" patternUnits="userSpaceOnUse" width="72" x="0" y="0">
   <rect fill="none" height="73" width="73" x="0" y="0"/>
   <path d="M -36 36 
L 36 -36 
M -24 48 
L 48 -24 
M -12 60 
L 60 -12 
M 0 72 
L 72 0 
M 12 84 
L 84 12 
M 24 96 
L 96 24 
M 36 108 
L 108 36 
M -36 36 
L 36 108 
M -24 24 
L 48 96 
M -12 12 
L 60 84 
M 0 0 
L 72 72 
M 12 -12 
L 84 60 
M 24 -24 
L 96 48 
M 36 -36 
L 108 36 
" style="fill:#1f77b4;stroke:#1f77b4;stroke-linecap:butt;stroke-linejoin:miter;stroke-width:1.0;"/>
  </pattern>
  <pattern height="72" id="h7b41a51990" patternUnits="userSpaceOnUse" width="72" x="0" y="0">
   <rect fill="none" height="73" width="73" x="0" y="0"/>
   <path d="M 0 74.4 
C 0.636487 74.4 1.246992 74.147121 1.697056 73.697056 
C 2.147121 73.246992 2.4 72.636487 2.4 72 
C 2.4 71.363513 2.147121 70.753008 1.697056 70.302944 
C 1.246992 69.852879 0.636487 69.6 0 69.6 
C -0.636487 69.6 -1.246992 69.852879 -1.697056 70.302944 
C -2.147121 70.753008 -2.4 71.363513 -2.4 72 
C -2.4 72.636487 -2.147121 73.246992 -1.697056 73.697056 
C -1.246992 74.147121 -0.636487 74.4 0 74.4 
z
M 0 74.16 
C 0 74.16 -0.572839 74.16 -1.122293 73.932409 
C -1.527351 73.527351 -1.932409 73.122293 -2.16 72.572839 
C -2.16 72 -2.16 71.427161 -1.932409 70.877707 
C -1.527351 70.472649 -1.122293 70.067591 -0.572839 69.84 
C 0 69.84 0.572839 69.84 1.122293 70.067591 
C 1.527351 70.472649 1.932409 70.877707 2.16 71.427161 
C 2.16 72 2.16 72.572839 1.932409 73.122293 
C 1.527351 73.527351 1.122293 73.932409 0.572839 74.16 
z
M 12 74.4 
C 12.636487 74.4 13.246992 74.147121 13.697056 73.697056 
C 14.147121 73.246992 14.4 72.636487 14.4 72 
C 14.4 71.363513 14.147121 70.753008 13.697056 70.302944 
C 13.246992 69.852879 12.636487 69.6 12 69.6 
C 11.363513 69.6 10.753008 69.852879 10.302944 70.302944 
C 9.852879 70.753008 9.6 71.363513 9.6 72 
C 9.6 72.636487 9.852879 73.246992 10.302944 73.697056 
C 10.753008 74.147121 11.363513 74.4 12 74.4 
z
M 12 74.16 
C 12 74.16 11.427161 74.16 10.877707 73.932409 
C 10.472649 73.527351 10.067591 73.122293 9.84 72.572839 
C 9.84 72 9.84 71.427161 10.067591 70.877707 
C 10.472649 70.472649 10.877707 70.067591 11.427161 69.84 
C 12 69.84 12.572839 69.84 13.122293 70.067591 
C 13.527351 70.472649 13.932409 70.877707 14.16 71.427161 
C 14.16 72 14.16 72.572839 13.932409 73.122293 
C 13.527351 73.527351 13.122293 73.932409 12.572839 74.16 
z
M 24 74.4 
C 24.636487 74.4 25.246992 74.147121 25.697056 73.697056 
C 26.147121 73.246992 26.4 72.636487 26.4 72 
C 26.4 71.363513 26.147121 70.753008 25.697056 70.302944 
C 25.246992 69.852879 24.636487 69.6 24 69.6 
C 23.363513 69.6 22.753008 69.852879 22.302944 70.302944 
C 21.852879 70.753008 21.6 71.363513 21.6 72 
C 21.6 72.636487 21.852879 73.246992 22.302944 73.697056 
C 22.753008 74.147121 23.363513 74.4 24 74.4 
z
M 24 74.16 
C 24 74.16 23.427161 74.16 22.877707 73.932409 
C 22.472649 73.527351 22.067591 73.122293 21.84 72.572839 
C 21.84 72 21.84 71.427161 22.067591 70.877707 
C 22.472649 70.472649 22.877707 70.067591 23.427161 69.84 
C 24 69.84 24.572839 69.84 25.122293 70.067591 
C 25.527351 70.472649 25.932409 70.877707 26.16 71.427161 
C 26.16 72 26.16 72.572839 25.932409 73.122293 
C 25.527351 73.527351 25.122293 73.932409 24.572839 74.16 
z
M 36 74.4 
C 36.636487 74.4 37.246992 74.147121 37.697056 73.697056 
C 38.147121 73.246992 38.4 72.636487 38.4 72 
C 38.4 71.363513 38.147121 70.753008 37.697056 70.302944 
C 37.246992 69.852879 36.636487 69.6 36 69.6 
C 35.363513 69.6 34.753008 69.852879 34.302944 70.302944 
C 33.852879 70.753008 33.6 71.363513 33.6 72 
C 33.6 72.636487 33.852879 73.246992 34.302944 73.697056 
C 34.753008 74.147121 35.363513 74.4 36 74.4 
z
M 36 74.16 
C 36 74.16 35.427161 74.16 34.877707 73.932409 
C 34.472649 73.527351 34.067591 73.122293 33.84 72.572839 
C 33.84 72 33.84 71.427161 34.067591 70.877707 
C 34.472649 70.472649 34.877707 70.067591 35.427161 69.84 
C 36 69.84 36.572839 69.84 37.122293 70.067591 
C 37.527351 70.472649 37.932409 70.877707 38.16 71.427161 
C 38.16 72 38.16 72.572839 37.932409 73.122293 
C 37.527351 73.527351 37.122293 73.932409 36.572839 74.16 
z
M 48 74.4 
C 48.636487 74.4 49.246992 74.147121 49.697056 73.697056 
C 50.147121 73.246992 50.4 72.636487 50.4 72 
C 50.4 71.363513 50.147121 70.753008 49.697056 70.302944 
C 49.246992 69.852879 48.636487 69.6 48 69.6 
C 47.363513 69.6 46.753008 69.852879 46.302944 70.302944 
C 45.852879 70.753008 45.6 71.363513 45.6 72 
C 45.6 72.636487 45.852879 73.246992 46.302944 73.697056 
C 46.753008 74.147121 47.363513 74.4 48 74.4 
z
M 48 74.16 
C 48 74.16 47.427161 74.16 46.877707 73.932409 
C 46.472649 73.527351 46.067591 73.122293 45.84 72.572839 
C 45.84 72 45.84 71.427161 46.067591 70.877707 
C 46.472649 70.472649 46.877707 70.067591 47.427161 69.84 
C 48 69.84 48.572839 69.84 49.122293 70.067591 
C 49.527351 70.472649 49.932409 70.877707 50.16 71.427161 
C 50.16 72 50.16 72.572839 49.932409 73.122293 
C 49.527351 73.527351 49.122293 73.932409 48.572839 74.16 
z
M 60 74.4 
C 60.636487 74.4 61.246992 74.147121 61.697056 73.697056 
C 62.147121 73.246992 62.4 72.636487 62.4 72 
C 62.4 71.363513 62.147121 70.753008 61.697056 70.302944 
C 61.246992 69.852879 60.636487 69.6 60 69.6 
C 59.363513 69.6 58.753008 69.852879 58.302944 70.302944 
C 57.852879 70.753008 57.6 71.363513 57.6 72 
C 57.6 72.636487 57.852879 73.246992 58.302944 73.697056 
C 58.753008 74.147121 59.363513 74.4 60 74.4 
z
M 60 74.16 
C 60 74.16 59.427161 74.16 58.877707 73.932409 
C 58.472649 73.527351 58.067591 73.122293 57.84 72.572839 
C 57.84 72 57.84 71.427161 58.067591 70.877707 
C 58.472649 70.472649 58.877707 70.067591 59.427161 69.84 
C 60 69.84 60.572839 69.84 61.122293 70.067591 
C 61.527351 70.472649 61.932409 70.877707 62.16 71.427161 
C 62.16 72 62.16 72.572839 61.932409 73.122293 
C 61.527351 73.527351 61.122293 73.932409 60.572839 74.16 
z
M 72 74.4 
C 72.636487 74.4 73.246992 74.147121 73.697056 73.697056 
C 74.147121 73.246992 74.4 72.636487 74.4 72 
C 74.4 71.363513 74.147121 70.753008 73.697056 70.302944 
C 73.246992 69.852879 72.636487 69.6 72 69.6 
C 71.363513 69.6 70.753008 69.852879 70.302944 70.302944 
C 69.852879 70.753008 69.6 71.363513 69.6 72 
C 69.6 72.636487 69.852879 73.246992 70.302944 73.697056 
C 70.753008 74.147121 71.363513 74.4 72 74.4 
z
M 72 74.16 
C 72 74.16 71.427161 74.16 70.877707 73.932409 
C 70.472649 73.527351 70.067591 73.122293 69.84 72.572839 
C 69.84 72 69.84 71.427161 70.067591 70.877707 
C 70.472649 70.472649 70.877707 70.067591 71.427161 69.84 
C 72 69.84 72.572839 69.84 73.122293 70.067591 
C 73.527351 70.472649 73.932409 70.877707 74.16 71.427161 
C 74.16 72 74.16 72.572839 73.932409 73.122293 
C 73.527351 73.527351 73.122293 73.932409 72.572839 74.16 
z
M 6 62.4 
C 6.636487 62.4 7.246992 62.147121 7.697056 61.697056 
C 8.147121 61.246992 8.4 60.636487 8.4 60 
C 8.4 59.363513 8.147121 58.753008 7.697056 58.302944 
C 7.246992 57.852879 6.636487 57.6 6 57.6 
C 5.363513 57.6 4.753008 57.852879 4.302944 58.302944 
C 3.852879 58.753008 3.6 59.363513 3.6 60 
C 3.6 60.636487 3.852879 61.246992 4.302944 61.697056 
C 4.753008 62.147121 5.363513 62.4 6 62.4 
z
M 6 62.16 
C 6 62.16 5.427161 62.16 4.877707 61.932409 
C 4.472649 61.527351 4.067591 61.122293 3.84 60.572839 
C 3.84 60 3.84 59.427161 4.067591 58.877707 
C 4.472649 58.472649 4.877707 58.067591 5.427161 57.84 
C 6 57.84 6.572839 57.84 7.122293 58.067591 
C 7.527351 58.472649 7.932409 58.877707 8.16 59.427161 
C 8.16 60 8.16 60.572839 7.932409 61.122293 
C 7.527351 61.527351 7.122293 61.932409 6.572839 62.16 
z
M 18 62.4 
C 18.636487 62.4 19.246992 62.147121 19.697056 61.697056 
C 20.147121 61.246992 20.4 60.636487 20.4 60 
C 20.4 59.363513 20.147121 58.753008 19.697056 58.302944 
C 19.246992 57.852879 18.636487 57.6 18 57.6 
C 17.363513 57.6 16.753008 57.852879 16.302944 58.302944 
C 15.852879 58.753008 15.6 59.363513 15.6 60 
C 15.6 60.636487 15.852879 61.246992 16.302944 61.697056 
C 16.753008 62.147121 17.363513 62.4 18 62.4 
z
M 18 62.16 
C 18 62.16 17.427161 62.16 16.877707 61.932409 
C 16.472649 61.527351 16.067591 61.122293 15.84 60.572839 
C 15.84 60 15.84 59.427161 16.067591 58.877707 
C 16.472649 58.472649 16.877707 58.067591 17.427161 57.84 
C 18 57.84 18.572839 57.84 19.122293 58.067591 
C 19.527351 58.472649 19.932409 58.877707 20.16 59.427161 
C 20.16 60 20.16 60.572839 19.932409 61.122293 
C 19.527351 61.527351 19.122293 61.932409 18.572839 62.16 
z
M 30 62.4 
C 30.636487 62.4 31.246992 62.147121 31.697056 61.697056 
C 32.147121 61.246992 32.4 60.636487 32.4 60 
C 32.4 59.363513 32.147121 58.753008 31.697056 58.302944 
C 31.246992 57.852879 30.636487 57.6 30 57.6 
C 29.363513 57.6 28.753008 57.852879 28.302944 58.302944 
C 27.852879 58.753008 27.6 59.363513 27.6 60 
C 27.6 60.636487 27.852879 61.246992 28.302944 61.697056 
C 28.753008 62.147121 29.363513 62.4 30 62.4 
z
M 30 62.16 
C 30 62.16 29.427161 62.16 28.877707 61.932409 
C 28.472649 61.527351 28.067591 61.122293 27.84 60.572839 
C 27.84 60 27.84 59.427161 28.067591 58.877707 
C 28.472649 58.472649 28.877707 58.067591 29.427161 57.84 
C 30 57.84 30.572839 57.84 31.122293 58.067591 
C 31.527351 58.472649 31.932409 58.877707 32.16 59.427161 
C 32.16 60 32.16 60.572839 31.932409 61.122293 
C 31.527351 61.527351 31.122293 61.932409 30.572839 62.16 
z
M 42 62.4 
C 42.636487 62.4 43.246992 62.147121 43.697056 61.697056 
C 44.147121 61.246992 44.4 60.636487 44.4 60 
C 44.4 59.363513 44.147121 58.753008 43.697056 58.302944 
C 43.246992 57.852879 42.636487 57.6 42 57.6 
C 41.363513 57.6 40.753008 57.852879 40.302944 58.302944 
C 39.852879 58.753008 39.6 59.363513 39.6 60 
C 39.6 60.636487 39.852879 61.246992 40.302944 61.697056 
C 40.753008 62.147121 41.363513 62.4 42 62.4 
z
M 42 62.16 
C 42 62.16 41.427161 62.16 40.877707 61.932409 
C 40.472649 61.527351 40.067591 61.122293 39.84 60.572839 
C 39.84 60 39.84 59.427161 40.067591 58.877707 
C 40.472649 58.472649 40.877707 58.067591 41.427161 57.84 
C 42 57.84 42.572839 57.84 43.122293 58.067591 
C 43.527351 58.472649 43.932409 58.877707 44.16 59.427161 
C 44.16 60 44.16 60.572839 43.932409 61.122293 
C 43.527351 61.527351 43.122293 61.932409 42.572839 62.16 
z
M 54 62.4 
C 54.636487 62.4 55.246992 62.147121 55.697056 61.697056 
C 56.147121 61.246992 56.4 60.636487 56.4 60 
C 56.4 59.363513 56.147121 58.753008 55.697056 58.302944 
C 55.246992 57.852879 54.636487 57.6 54 57.6 
C 53.363513 57.6 52.753008 57.852879 52.302944 58.302944 
C 51.852879 58.753008 51.6 59.363513 51.6 60 
C 51.6 60.636487 51.852879 61.246992 52.302944 61.697056 
C 52.753008 62.147121 53.363513 62.4 54 62.4 
z
M 54 62.16 
C 54 62.16 53.427161 62.16 52.877707 61.932409 
C 52.472649 61.527351 52.067591 61.122293 51.84 60.572839 
C 51.84 60 51.84 59.427161 52.067591 58.877707 
C 52.472649 58.472649 52.877707 58.067591 53.427161 57.84 
C 54 57.84 54.572839 57.84 55.122293 58.067591 
C 55.527351 58.472649 55.932409 58.877707 56.16 59.427161 
C 56.16 60 56.16 60.572839 55.932409 61.122293 
C 55.527351 61.527351 55.122293 61.932409 54.572839 62.16 
z
M 66 62.4 
C 66.636487 62.4 67.246992 62.147121 67.697056 61.697056 
C 68.147121 61.246992 68.4 60.636487 68.4 60 
C 68.4 59.363513 68.147121 58.753008 67.697056 58.302944 
C 67.246992 57.852879 66.636487 57.6 66 57.6 
C 65.363513 57.6 64.753008 57.852879 64.302944 58.302944 
C 63.852879 58.753008 63.6 59.363513 63.6 60 
C 63.6 60.636487 63.852879 61.246992 64.302944 61.697056 
C 64.753008 62.147121 65.363513 62.4 66 62.4 
z
M 66 62.16 
C 66 62.16 65.427161 62.16 64.877707 61.932409 
C 64.472649 61.527351 64.067591 61.122293 63.84 60.572839 
C 63.84 60 63.84 59.427161 64.067591 58.877707 
C 64.472649 58.472649 64.877707 58.067591 65.427161 57.84 
C 66 57.84 66.572839 57.84 67.122293 58.067591 
C 67.527351 58.472649 67.932409 58.877707 68.16 59.427161 
C 68.16 60 68.16 60.572839 67.932409 61.122293 
C 67.527351 61.527351 67.122293 61.932409 66.572839 62.16 
z
M 0 50.4 
C 0.636487 50.4 1.246992 50.147121 1.697056 49.697056 
C 2.147121 49.246992 2.4 48.636487 2.4 48 
C 2.4 47.363513 2.147121 46.753008 1.697056 46.302944 
C 1.246992 45.852879 0.636487 45.6 0 45.6 
C -0.636487 45.6 -1.246992 45.852879 -1.697056 46.302944 
C -2.147121 46.753008 -2.4 47.363513 -2.4 48 
C -2.4 48.636487 -2.147121 49.246992 -1.697056 49.697056 
C -1.246992 50.147121 -0.636487 50.4 0 50.4 
z
M 0 50.16 
C 0 50.16 -0.572839 50.16 -1.122293 49.932409 
C -1.527351 49.527351 -1.932409 49.122293 -2.16 48.572839 
C -2.16 48 -2.16 47.427161 -1.932409 46.877707 
C -1.527351 46.472649 -1.122293 46.067591 -0.572839 45.84 
C 0 45.84 0.572839 45.84 1.122293 46.067591 
C 1.527351 46.472649 1.932409 46.877707 2.16 47.427161 
C 2.16 48 2.16 48.572839 1.932409 49.122293 
C 1.527351 49.527351 1.122293 49.932409 0.572839 50.16 
z
M 12 50.4 
C 12.636487 50.4 13.246992 50.147121 13.697056 49.697056 
C 14.147121 49.246992 14.4 48.636487 14.4 48 
C 14.4 47.363513 14.147121 46.753008 13.697056 46.302944 
C 13.246992 45.852879 12.636487 45.6 12 45.6 
C 11.363513 45.6 10.753008 45.852879 10.302944 46.302944 
C 9.852879 46.753008 9.6 47.363513 9.6 48 
C 9.6 48.636487 9.852879 49.246992 10.302944 49.697056 
C 10.753008 50.147121 11.363513 50.4 12 50.4 
z
M 12 50.16 
C 12 50.16 11.427161 50.16 10.877707 49.932409 
C 10.472649 49.527351 10.067591 49.122293 9.84 48.572839 
C 9.84 48 9.84 47.427161 10.067591 46.877707 
C 10.472649 46.472649 10.877707 46.067591 11.427161 45.84 
C 12 45.84 12.572839 45.84 13.122293 46.067591 
C 13.527351 46.472649 13.932409 46.877707 14.16 47.427161 
C 14.16 48 14.16 48.572839 13.932409 49.122293 
C 13.527351 49.527351 13.122293 49.932409 12.572839 50.16 
z
M 24 50.4 
C 24.636487 50.4 25.246992 50.147121 25.697056 49.697056 
C 26.147121 49.246992 26.4 48.636487 26.4 48 
C 26.4 47.363513 26.147121 46.753008 25.697056 46.302944 
C 25.246992 45.852879 24.636487 45.6 24 45.6 
C 23.363513 45.6 22.753008 45.852879 22.302944 46.302944 
C 21.852879 46.753008 21.6 47.363513 21.6 48 
C 21.6 48.636487 21.852879 49.246992 22.302944 49.697056 
C 22.753008 50.147121 23.363513 50.4 24 50.4 
z
M 24 50.16 
C 24 50.16 23.427161 50.16 22.877707 49.932409 
C 22.472649 49.527351 22.067591 49.122293 21.84 48.572839 
C 21.84 48 21.84 47.427161 22.067591 46.877707 
C 22.472649 46.472649 22.877707 46.067591 23.427161 45.84 
C 24 45.84 24.572839 45.84 25.122293 46.067591 
C 25.527351 46.472649 25.932409 46.877707 26.16 47.427161 
C 26.16 48 26.16 48.572839 25.932409 49.122293 
C 25.527351 49.527351 25.122293 49.932409 24.572839 50.16 
z
M 36 50.4 
C 36.636487 50.4 37.246992 50.147121 37.697056 49.697056 
C 38.147121 49.246992 38.4 48.636487 38.4 48 
C 38.4 47.363513 38.147121 46.753008 37.697056 46.302944 
C 37.246992 45.852879 36.636487 45.6 36 45.6 
C 35.363513 45.6 34.753008 45.852879 34.302944 46.302944 
C 33.852879 46.753008 33.6 47.363513 33.6 48 
C 33.6 48.636487 33.852879 49.246992 34.302944 49.697056 
C 34.753008 50.147121 35.363513 50.4 36 50.4 
z
M 36 50.16 
C 36 50.16 35.427161 50.16 34.877707 49.932409 
C 34.472649 49.527351 34.067591 49.122293 33.84 48.572839 
C 33.84 48 33.84 47.427161 34.067591 46.877707 
C 34.472649 46.472649 34.877707 46.067591 35.427161 45.84 
C 36 45.84 36.572839 45.84 37.122293 46.067591 
C 37.527351 46.472649 37.932409 46.877707 38.16 47.427161 
C 38.16 48 38.16 48.572839 37.932409 49.122293 
C 37.527351 49.527351 37.122293 49.932409 36.572839 50.16 
z
M 48 50.4 
C 48.636487 50.4 49.246992 50.147121 49.697056 49.697056 
C 50.147121 49.246992 50.4 48.636487 50.4 48 
C 50.4 47.363513 50.147121 46.753008 49.697056 46.302944 
C 49.246992 45.852879 48.636487 45.6 48 45.6 
C 47.363513 45.6 46.753008 45.852879 46.302944 46.302944 
C 45.852879 46.753008 45.6 47.363513 45.6 48 
C 45.6 48.636487 45.852879 49.246992 46.302944 49.697056 
C 46.753008 50.147121 47.363513 50.4 48 50.4 
z
M 48 50.16 
C 48 50.16 47.427161 50.16 46.877707 49.932409 
C 46.472649 49.527351 46.067591 49.122293 45.84 48.572839 
C 45.84 48 45.84 47.427161 46.067591 46.877707 
C 46.472649 46.472649 46.877707 46.067591 47.427161 45.84 
C 48 45.84 48.572839 45.84 49.122293 46.067591 
C 49.527351 46.472649 49.932409 46.877707 50.16 47.427161 
C 50.16 48 50.16 48.572839 49.932409 49.122293 
C 49.527351 49.527351 49.122293 49.932409 48.572839 50.16 
z
M 60 50.4 
C 60.636487 50.4 61.246992 50.147121 61.697056 49.697056 
C 62.147121 49.246992 62.4 48.636487 62.4 48 
C 62.4 47.363513 62.147121 46.753008 61.697056 46.302944 
C 61.246992 45.852879 60.636487 45.6 60 45.6 
C 59.363513 45.6 58.753008 45.852879 58.302944 46.302944 
C 57.852879 46.753008 57.6 47.363513 57.6 48 
C 57.6 48.636487 57.852879 49.246992 58.302944 49.697056 
C 58.753008 50.147121 59.363513 50.4 60 50.4 
z
M 60 50.16 
C 60 50.16 59.427161 50.16 58.877707 49.932409 
C 58.472649 49.527351 58.067591 49.122293 57.84 48.572839 
C 57.84 48 57.84 47.427161 58.067591 46.877707 
C 58.472649 46.472649 58.877707 46.067591 59.427161 45.84 
C 60 45.84 60.572839 45.84 61.122293 46.067591 
C 61.527351 46.472649 61.932409 46.877707 62.16 47.427161 
C 62.16 48 62.16 48.572839 61.932409 49.122293 
C 61.527351 49.527351 61.122293 49.932409 60.572839 50.16 
z
M 72 50.4 
C 72.636487 50.4 73.246992 50.147121 73.697056 49.697056 
C 74.147121 49.246992 74.4 48.636487 74.4 48 
C 74.4 47.363513 74.147121 46.753008 73.697056 46.302944 
C 73.246992 45.852879 72.636487 45.6 72 45.6 
C 71.363513 45.6 70.753008 45.852879 70.302944 46.302944 
C 69.852879 46.753008 69.6 47.363513 69.6 48 
C 69.6 48.636487 69.852879 49.246992 70.302944 49.697056 
C 70.753008 50.147121 71.363513 50.4 72 50.4 
z
M 72 50.16 
C 72 50.16 71.427161 50.16 70.877707 49.932409 
C 70.472649 49.527351 70.067591 49.122293 69.84 48.572839 
C 69.84 48 69.84 47.427161 70.067591 46.877707 
C 70.472649 46.472649 70.877707 46.067591 71.427161 45.84 
C 72 45.84 72.572839 45.84 73.122293 46.067591 
C 73.527351 46.472649 73.932409 46.877707 74.16 47.427161 
C 74.16 48 74.16 48.572839 73.932409 49.122293 
C 73.527351 49.527351 73.122293 49.932409 72.572839 50.16 
z
M 6 38.4 
C 6.636487 38.4 7.246992 38.147121 7.697056 37.697056 
C 8.147121 37.246992 8.4 36.636487 8.4 36 
C 8.4 35.363513 8.147121 34.753008 7.697056 34.302944 
C 7.246992 33.852879 6.636487 33.6 6 33.6 
C 5.363513 33.6 4.753008 33.852879 4.302944 34.302944 
C 3.852879 34.753008 3.6 35.363513 3.6 36 
C 3.6 36.636487 3.852879 37.246992 4.302944 37.697056 
C 4.753008 38.147121 5.363513 38.4 6 38.4 
z
M 6 38.16 
C 6 38.16 5.427161 38.16 4.877707 37.932409 
C 4.472649 37.527351 4.067591 37.122293 3.84 36.572839 
C 3.84 36 3.84 35.427161 4.067591 34.877707 
C 4.472649 34.472649 4.877707 34.067591 5.427161 33.84 
C 6 33.84 6.572839 33.84 7.122293 34.067591 
C 7.527351 34.472649 7.932409 34.877707 8.16 35.427161 
C 8.16 36 8.16 36.572839 7.932409 37.122293 
C 7.527351 37.527351 7.122293 37.932409 6.572839 38.16 
z
M 18 38.4 
C 18.636487 38.4 19.246992 38.147121 19.697056 37.697056 
C 20.147121 37.246992 20.4 36.636487 20.4 36 
C 20.4 35.363513 20.147121 34.753008 19.697056 34.302944 
C 19.246992 33.852879 18.636487 33.6 18 33.6 
C 17.363513 33.6 16.753008 33.852879 16.302944 34.302944 
C 15.852879 34.753008 15.6 35.363513 15.6 36 
C 15.6 36.636487 15.852879 37.246992 16.302944 37.697056 
C 16.753008 38.147121 17.363513 38.4 18 38.4 
z
M 18 38.16 
C 18 38.16 17.427161 38.16 16.877707 37.932409 
C 16.472649 37.527351 16.067591 37.122293 15.84 36.572839 
C 15.84 36 15.84 35.427161 16.067591 34.877707 
C 16.472649 34.472649 16.877707 34.067591 17.427161 33.84 
C 18 33.84 18.572839 33.84 19.122293 34.067591 
C 19.527351 34.472649 19.932409 34.877707 20.16 35.427161 
C 20.16 36 20.16 36.572839 19.932409 37.122293 
C 19.527351 37.527351 19.122293 37.932409 18.572839 38.16 
z
M 30 38.4 
C 30.636487 38.4 31.246992 38.147121 31.697056 37.697056 
C 32.147121 37.246992 32.4 36.636487 32.4 36 
C 32.4 35.363513 32.147121 34.753008 31.697056 34.302944 
C 31.246992 33.852879 30.636487 33.6 30 33.6 
C 29.363513 33.6 28.753008 33.852879 28.302944 34.302944 
C 27.852879 34.753008 27.6 35.363513 27.6 36 
C 27.6 36.636487 27.852879 37.246992 28.302944 37.697056 
C 28.753008 38.147121 29.363513 38.4 30 38.4 
z
M 30 38.16 
C 30 38.16 29.427161 38.16 28.877707 37.932409 
C 28.472649 37.527351 28.067591 37.122293 27.84 36.572839 
C 27.84 36 27.84 35.427161 28.067591 34.877707 
C 28.472649 34.472649 28.877707 34.067591 29.427161 33.84 
C 30 33.84 30.572839 33.84 31.122293 34.067591 
C 31.527351 34.472649 31.932409 34.877707 32.16 35.427161 
C 32.16 36 32.16 36.572839 31.932409 37.122293 
C 31.527351 37.527351 31.122293 37.932409 30.572839 38.16 
z
M 42 38.4 
C 42.636487 38.4 43.246992 38.147121 43.697056 37.697056 
C 44.147121 37.246992 44.4 36.636487 44.4 36 
C 44.4 35.363513 44.147121 34.753008 43.697056 34.302944 
C 43.246992 33.852879 42.636487 33.6 42 33.6 
C 41.363513 33.6 40.753008 33.852879 40.302944 34.302944 
C 39.852879 34.753008 39.6 35.363513 39.6 36 
C 39.6 36.636487 39.852879 37.246992 40.302944 37.697056 
C 40.753008 38.147121 41.363513 38.4 42 38.4 
z
M 42 38.16 
C 42 38.16 41.427161 38.16 40.877707 37.932409 
C 40.472649 37.527351 40.067591 37.122293 39.84 36.572839 
C 39.84 36 39.84 35.427161 40.067591 34.877707 
C 40.472649 34.472649 40.877707 34.067591 41.427161 33.84 
C 42 33.84 42.572839 33.84 43.122293 34.067591 
C 43.527351 34.472649 43.932409 34.877707 44.16 35.427161 
C 44.16 36 44.16 36.572839 43.932409 37.122293 
C 43.527351 37.527351 43.122293 37.932409 42.572839 38.16 
z
M 54 38.4 
C 54.636487 38.4 55.246992 38.147121 55.697056 37.697056 
C 56.147121 37.246992 56.4 36.636487 56.4 36 
C 56.4 35.363513 56.147121 34.753008 55.697056 34.302944 
C 55.246992 33.852879 54.636487 33.6 54 33.6 
C 53.363513 33.6 52.753008 33.852879 52.302944 34.302944 
C 51.852879 34.753008 51.6 35.363513 51.6 36 
C 51.6 36.636487 51.852879 37.246992 52.302944 37.697056 
C 52.753008 38.147121 53.363513 38.4 54 38.4 
z
M 54 38.16 
C 54 38.16 53.427161 38.16 52.877707 37.932409 
C 52.472649 37.527351 52.067591 37.122293 51.84 36.572839 
C 51.84 36 51.84 35.427161 52.067591 34.877707 
C 52.472649 34.472649 52.877707 34.067591 53.427161 33.84 
C 54 33.84 54.572839 33.84 55.122293 34.067591 
C 55.527351 34.472649 55.932409 34.877707 56.16 35.427161 
C 56.16 36 56.16 36.572839 55.932409 37.122293 
C 55.527351 37.527351 55.122293 37.932409 54.572839 38.16 
z
M 66 38.4 
C 66.636487 38.4 67.246992 38.147121 67.697056 37.697056 
C 68.147121 37.246992 68.4 36.636487 68.4 36 
C 68.4 35.363513 68.147121 34.753008 67.697056 34.302944 
C 67.246992 33.852879 66.636487 33.6 66 33.6 
C 65.363513 33.6 64.753008 33.852879 64.302944 34.302944 
C 63.852879 34.753008 63.6 35.363513 63.6 36 
C 63.6 36.636487 63.852879 37.246992 64.302944 37.697056 
C 64.753008 38.147121 65.363513 38.4 66 38.4 
z
M 66 38.16 
C 66 38.16 65.427161 38.16 64.877707 37.932409 
C 64.472649 37.527351 64.067591 37.122293 63.84 36.572839 
C 63.84 36 63.84 35.427161 64.067591 34.877707 
C 64.472649 34.472649 64.877707 34.067591 65.427161 33.84 
C 66 33.84 66.572839 33.84 67.122293 34.067591 
C 67.527351 34.472649 67.932409 34.877707 68.16 35.427161 
C 68.16 36 68.16 36.572839 67.932409 37.122293 
C 67.527351 37.527351 67.122293 37.932409 66.572839 38.16 
z
M 0 26.4 
C 0.636487 26.4 1.246992 26.147121 1.697056 25.697056 
C 2.147121 25.246992 2.4 24.636487 2.4 24 
C 2.4 23.363513 2.147121 22.753008 1.697056 22.302944 
C 1.246992 21.852879 0.636487 21.6 0 21.6 
C -0.636487 21.6 -1.246992 21.852879 -1.697056 22.302944 
C -2.147121 22.753008 -2.4 23.363513 -2.4 24 
C -2.4 24.636487 -2.147121 25.246992 -1.697056 25.697056 
C -1.246992 26.147121 -0.636487 26.4 0 26.4 
z
M 0 26.16 
C 0 26.16 -0.572839 26.16 -1.122293 25.932409 
C -1.527351 25.527351 -1.932409 25.122293 -2.16 24.572839 
C -2.16 24 -2.16 23.427161 -1.932409 22.877707 
C -1.527351 22.472649 -1.122293 22.067591 -0.572839 21.84 
C 0 21.84 0.572839 21.84 1.122293 22.067591 
C 1.527351 22.472649 1.932409 22.877707 2.16 23.427161 
C 2.16 24 2.16 24.572839 1.932409 25.122293 
C 1.527351 25.527351 1.122293 25.932409 0.572839 26.16 
z
M 12 26.4 
C 12.636487 26.4 13.246992 26.147121 13.697056 25.697056 
C 14.147121 25.246992 14.4 24.636487 14.4 24 
C 14.4 23.363513 14.147121 22.753008 13.697056 22.302944 
C 13.246992 21.852879 12.636487 21.6 12 21.6 
C 11.363513 21.6 10.753008 21.852879 10.302944 22.302944 
C 9.852879 22.753008 9.6 23.363513 9.6 24 
C 9.6 24.636487 9.852879 25.246992 10.302944 25.697056 
C 10.753008 26.147121 11.363513 26.4 12 26.4 
z
M 12 26.16 
C 12 26.16 11.427161 26.16 10.877707 25.932409 
C 10.472649 25.527351 10.067591 25.122293 9.84 24.572839 
C 9.84 24 9.84 23.427161 10.067591 22.877707 
C 10.472649 22.472649 10.877707 22.067591 11.427161 21.84 
C 12 21.84 12.572839 21.84 13.122293 22.067591 
C 13.527351 22.472649 13.932409 22.877707 14.16 23.427161 
C 14.16 24 14.16 24.572839 13.932409 25.122293 
C 13.527351 25.527351 13.122293 25.932409 12.572839 26.16 
z
M 24 26.4 
C 24.636487 26.4 25.246992 26.147121 25.697056 25.697056 
C 26.147121 25.246992 26.4 24.636487 26.4 24 
C 26.4 23.363513 26.147121 22.753008 25.697056 22.302944 
C 25.246992 21.852879 24.636487 21.6 24 21.6 
C 23.363513 21.6 22.753008 21.852879 22.302944 22.302944 
C 21.852879 22.753008 21.6 23.363513 21.6 24 
C 21.6 24.636487 21.852879 25.246992 22.302944 25.697056 
C 22.753008 26.147121 23.363513 26.4 24 26.4 
z
M 24 26.16 
C 24 26.16 23.427161 26.16 22.877707 25.932409 
C 22.472649 25.527351 22.067591 25.122293 21.84 24.572839 
C 21.84 24 21.84 23.427161 22.067591 22.877707 
C 22.472649 22.472649 22.877707 22.067591 23.427161 21.84 
C 24 21.84 24.572839 21.84 25.122293 22.067591 
C 25.527351 22.472649 25.932409 22.877707 26.16 23.427161 
C 26.16 24 26.16 24.572839 25.932409 25.122293 
C 25.527351 25.527351 25.122293 25.932409 24.572839 26.16 
z
M 36 26.4 
C 36.636487 26.4 37.246992 26.147121 37.697056 25.697056 
C 38.147121 25.246992 38.4 24.636487 38.4 24 
C 38.4 23.363513 38.147121 22.753008 37.697056 22.302944 
C 37.246992 21.852879 36.636487 21.6 36 21.6 
C 35.363513 21.6 34.753008 21.852879 34.302944 22.302944 
C 33.852879 22.753008 33.6 23.363513 33.6 24 
C 33.6 24.636487 33.852879 25.246992 34.302944 25.697056 
C 34.753008 26.147121 35.363513 26.4 36 26.4 
z
M 36 26.16 
C 36 26.16 35.427161 26.16 34.877707 25.932409 
C 34.472649 25.527351 34.067591 25.122293 33.84 24.572839 
C 33.84 24 33.84 23.427161 34.067591 22.877707 
C 34.472649 22.472649 34.877707 22.067591 35.427161 21.84 
C 36 21.84 36.572839 21.84 37.122293 22.067591 
C 37.527351 22.472649 37.932409 22.877707 38.16 23.427161 
C 38.16 24 38.16 24.572839 37.932409 25.122293 
C 37.527351 25.527351 37.122293 25.932409 36.572839 26.16 
z
M 48 26.4 
C 48.636487 26.4 49.246992 26.147121 49.697056 25.697056 
C 50.147121 25.246992 50.4 24.636487 50.4 24 
C 50.4 23.363513 50.147121 22.753008 49.697056 22.302944 
C 49.246992 21.852879 48.636487 21.6 48 21.6 
C 47.363513 21.6 46.753008 21.852879 46.302944 22.302944 
C 45.852879 22.753008 45.6 23.363513 45.6 24 
C 45.6 24.636487 45.852879 25.246992 46.302944 25.697056 
C 46.753008 26.147121 47.363513 26.4 48 26.4 
z
M 48 26.16 
C 48 26.16 47.427161 26.16 46.877707 25.932409 
C 46.472649 25.527351 46.067591 25.122293 45.84 24.572839 
C 45.84 24 45.84 23.427161 46.067591 22.877707 
C 46.472649 22.472649 46.877707 22.067591 47.427161 21.84 
C 48 21.84 48.572839 21.84 49.122293 22.067591 
C 49.527351 22.472649 49.932409 22.877707 50.16 23.427161 
C 50.16 24 50.16 24.572839 49.932409 25.122293 
C 49.527351 25.527351 49.122293 25.932409 48.572839 26.16 
z
M 60 26.4 
C 60.636487 26.4 61.246992 26.147121 61.697056 25.697056 
C 62.147121 25.246992 62.4 24.636487 62.4 24 
C 62.4 23.363513 62.147121 22.753008 61.697056 22.302944 
C 61.246992 21.852879 60.636487 21.6 60 21.6 
C 59.363513 21.6 58.753008 21.852879 58.302944 22.302944 
C 57.852879 22.753008 57.6 23.363513 57.6 24 
C 57.6 24.636487 57.852879 25.246992 58.302944 25.697056 
C 58.753008 26.147121 59.363513 26.4 60 26.4 
z
M 60 26.16 
C 60 26.16 59.427161 26.16 58.877707 25.932409 
C 58.472649 25.527351 58.067591 25.122293 57.84 24.572839 
C 57.84 24 57.84 23.427161 58.067591 22.877707 
C 58.472649 22.472649 58.877707 22.067591 59.427161 21.84 
C 60 21.84 60.572839 21.84 61.122293 22.067591 
C 61.527351 22.472649 61.932409 22.877707 62.16 23.427161 
C 62.16 24 62.16 24.572839 61.932409 25.122293 
C 61.527351 25.527351 61.122293 25.932409 60.572839 26.16 
z
M 72 26.4 
C 72.636487 26.4 73.246992 26.147121 73.697056 25.697056 
C 74.147121 25.246992 74.4 24.636487 74.4 24 
C 74.4 23.363513 74.147121 22.753008 73.697056 22.302944 
C 73.246992 21.852879 72.636487 21.6 72 21.6 
C 71.363513 21.6 70.753008 21.852879 70.302944 22.302944 
C 69.852879 22.753008 69.6 23.363513 69.6 24 
C 69.6 24.636487 69.852879 25.246992 70.302944 25.697056 
C 70.753008 26.147121 71.363513 26.4 72 26.4 
z
M 72 26.16 
C 72 26.16 71.427161 26.16 70.877707 25.932409 
C 70.472649 25.527351 70.067591 25.122293 69.84 24.572839 
C 69.84 24 69.84 23.427161 70.067591 22.877707 
C 70.472649 22.472649 70.877707 22.067591 71.427161 21.84 
C 72 21.84 72.572839 21.84 73.122293 22.067591 
C 73.527351 22.472649 73.932409 22.877707 74.16 23.427161 
C 74.16 24 74.16 24.572839 73.932409 25.122293 
C 73.527351 25.527351 73.122293 25.932409 72.572839 26.16 
z
M 6 14.4 
C 6.636487 14.4 7.246992 14.147121 7.697056 13.697056 
C 8.147121 13.246992 8.4 12.636487 8.4 12 
C 8.4 11.363513 8.147121 10.753008 7.697056 10.302944 
C 7.246992 9.852879 6.636487 9.6 6 9.6 
C 5.363513 9.6 4.753008 9.852879 4.302944 10.302944 
C 3.852879 10.753008 3.6 11.363513 3.6 12 
C 3.6 12.636487 3.852879 13.246992 4.302944 13.697056 
C 4.753008 14.147121 5.363513 14.4 6 14.4 
z
M 6 14.16 
C 6 14.16 5.427161 14.16 4.877707 13.932409 
C 4.472649 13.527351 4.067591 13.122293 3.84 12.572839 
C 3.84 12 3.84 11.427161 4.067591 10.877707 
C 4.472649 10.472649 4.877707 10.067591 5.427161 9.84 
C 6 9.84 6.572839 9.84 7.122293 10.067591 
C 7.527351 10.472649 7.932409 10.877707 8.16 11.427161 
C 8.16 12 8.16 12.572839 7.932409 13.122293 
C 7.527351 13.527351 7.122293 13.932409 6.572839 14.16 
z
M 18 14.4 
C 18.636487 14.4 19.246992 14.147121 19.697056 13.697056 
C 20.147121 13.246992 20.4 12.636487 20.4 12 
C 20.4 11.363513 20.147121 10.753008 19.697056 10.302944 
C 19.246992 9.852879 18.636487 9.6 18 9.6 
C 17.363513 9.6 16.753008 9.852879 16.302944 10.302944 
C 15.852879 10.753008 15.6 11.363513 15.6 12 
C 15.6 12.636487 15.852879 13.246992 16.302944 13.697056 
C 16.753008 14.147121 17.363513 14.4 18 14.4 
z
M 18 14.16 
C 18 14.16 17.427161 14.16 16.877707 13.932409 
C 16.472649 13.527351 16.067591 13.122293 15.84 12.572839 
C 15.84 12 15.84 11.427161 16.067591 10.877707 
C 16.472649 10.472649 16.877707 10.067591 17.427161 9.84 
C 18 9.84 18.572839 9.84 19.122293 10.067591 
C 19.527351 10.472649 19.932409 10.877707 20.16 11.427161 
C 20.16 12 20.16 12.572839 19.932409 13.122293 
C 19.527351 13.527351 19.122293 13.932409 18.572839 14.16 
z
M 30 14.4 
C 30.636487 14.4 31.246992 14.147121 31.697056 13.697056 
C 32.147121 13.246992 32.4 12.636487 32.4 12 
C 32.4 11.363513 32.147121 10.753008 31.697056 10.302944 
C 31.246992 9.852879 30.636487 9.6 30 9.6 
C 29.363513 9.6 28.753008 9.852879 28.302944 10.302944 
C 27.852879 10.753008 27.6 11.363513 27.6 12 
C 27.6 12.636487 27.852879 13.246992 28.302944 13.697056 
C 28.753008 14.147121 29.363513 14.4 30 14.4 
z
M 30 14.16 
C 30 14.16 29.427161 14.16 28.877707 13.932409 
C 28.472649 13.527351 28.067591 13.122293 27.84 12.572839 
C 27.84 12 27.84 11.427161 28.067591 10.877707 
C 28.472649 10.472649 28.877707 10.067591 29.427161 9.84 
C 30 9.84 30.572839 9.84 31.122293 10.067591 
C 31.527351 10.472649 31.932409 10.877707 32.16 11.427161 
C 32.16 12 32.16 12.572839 31.932409 13.122293 
C 31.527351 13.527351 31.122293 13.932409 30.572839 14.16 
z
M 42 14.4 
C 42.636487 14.4 43.246992 14.147121 43.697056 13.697056 
C 44.147121 13.246992 44.4 12.636487 44.4 12 
C 44.4 11.363513 44.147121 10.753008 43.697056 10.302944 
C 43.246992 9.852879 42.636487 9.6 42 9.6 
C 41.363513 9.6 40.753008 9.852879 40.302944 10.302944 
C 39.852879 10.753008 39.6 11.363513 39.6 12 
C 39.6 12.636487 39.852879 13.246992 40.302944 13.697056 
C 40.753008 14.147121 41.363513 14.4 42 14.4 
z
M 42 14.16 
C 42 14.16 41.427161 14.16 40.877707 13.932409 
C 40.472649 13.527351 40.067591 13.122293 39.84 12.572839 
C 39.84 12 39.84 11.427161 40.067591 10.877707 
C 40.472649 10.472649 40.877707 10.067591 41.427161 9.84 
C 42 9.84 42.572839 9.84 43.122293 10.067591 
C 43.527351 10.472649 43.932409 10.877707 44.16 11.427161 
C 44.16 12 44.16 12.572839 43.932409 13.122293 
C 43.527351 13.527351 43.122293 13.932409 42.572839 14.16 
z
M 54 14.4 
C 54.636487 14.4 55.246992 14.147121 55.697056 13.697056 
C 56.147121 13.246992 56.4 12.636487 56.4 12 
C 56.4 11.363513 56.147121 10.753008 55.697056 10.302944 
C 55.246992 9.852879 54.636487 9.6 54 9.6 
C 53.363513 9.6 52.753008 9.852879 52.302944 10.302944 
C 51.852879 10.753008 51.6 11.363513 51.6 12 
C 51.6 12.636487 51.852879 13.246992 52.302944 13.697056 
C 52.753008 14.147121 53.363513 14.4 54 14.4 
z
M 54 14.16 
C 54 14.16 53.427161 14.16 52.877707 13.932409 
C 52.472649 13.527351 52.067591 13.122293 51.84 12.572839 
C 51.84 12 51.84 11.427161 52.067591 10.877707 
C 52.472649 10.472649 52.877707 10.067591 53.427161 9.84 
C 54 9.84 54.572839 9.84 55.122293 10.067591 
C 55.527351 10.472649 55.932409 10.877707 56.16 11.427161 
C 56.16 12 56.16 12.572839 55.932409 13.122293 
C 55.527351 13.527351 55.122293 13.932409 54.572839 14.16 
z
M 66 14.4 
C 66.636487 14.4 67.246992 14.147121 67.697056 13.697056 
C 68.147121 13.246992 68.4 12.636487 68.4 12 
C 68.4 11.363513 68.147121 10.753008 67.697056 10.302944 
C 67.246992 9.852879 66.636487 9.6 66 9.6 
C 65.363513 9.6 64.753008 9.852879 64.302944 10.302944 
C 63.852879 10.753008 63.6 11.363513 63.6 12 
C 63.6 12.636487 63.852879 13.246992 64.302944 13.697056 
C 64.753008 14.147121 65.363513 14.4 66 14.4 
z
M 66 14.16 
C 66 14.16 65.427161 14.16 64.877707 13.932409 
C 64.472649 13.527351 64.067591 13.122293 63.84 12.572839 
C 63.84 12 63.84 11.427161 64.067591 10.877707 
C 64.472649 10.472649 64.877707 10.067591 65.427161 9.84 
C 66 9.84 66.572839 9.84 67.122293 10.067591 
C 67.527351 10.472649 67.932409 10.877707 68.16 11.427161 
C 68.16 12 68.16 12.572839 67.932409 13.122293 
C 67.527351 13.527351 67.122293 13.932409 66.572839 14.16 
z
M 0 2.4 
C 0.636487 2.4 1.246992 2.147121 1.697056 1.697056 
C 2.147121 1.246992 2.4 0.636487 2.4 0 
C 2.4 -0.636487 2.147121 -1.246992 1.697056 -1.697056 
C 1.246992 -2.147121 0.636487 -2.4 0 -2.4 
C -0.636487 -2.4 -1.246992 -2.147121 -1.697056 -1.697056 
C -2.147121 -1.246992 -2.4 -0.636487 -2.4 0 
C -2.4 0.636487 -2.147121 1.246992 -1.697056 1.697056 
C -1.246992 2.147121 -0.636487 2.4 0 2.4 
z
M 0 2.16 
C 0 2.16 -0.572839 2.16 -1.122293 1.932409 
C -1.527351 1.527351 -1.932409 1.122293 -2.16 0.572839 
C -2.16 0 -2.16 -0.572839 -1.932409 -1.122293 
C -1.527351 -1.527351 -1.122293 -1.932409 -0.572839 -2.16 
C 0 -2.16 0.572839 -2.16 1.122293 -1.932409 
C 1.527351 -1.527351 1.932409 -1.122293 2.16 -0.572839 
C 2.16 0 2.16 0.572839 1.932409 1.122293 
C 1.527351 1.527351 1.122293 1.932409 0.572839 2.16 
z
M 12 2.4 
C 12.636487 2.4 13.246992 2.147121 13.697056 1.697056 
C 14.147121 1.246992 14.4 0.636487 14.4 0 
C 14.4 -0.636487 14.147121 -1.246992 13.697056 -1.697056 
C 13.246992 -2.147121 12.636487 -2.4 12 -2.4 
C 11.363513 -2.4 10.753008 -2.147121 10.302944 -1.697056 
C 9.852879 -1.246992 9.6 -0.636487 9.6 0 
C 9.6 0.636487 9.852879 1.246992 10.302944 1.697056 
C 10.753008 2.147121 11.363513 2.4 12 2.4 
z
M 12 2.16 
C 12 2.16 11.427161 2.16 10.877707 1.932409 
C 10.472649 1.527351 10.067591 1.122293 9.84 0.572839 
C 9.84 0 9.84 -0.572839 10.067591 -1.122293 
C 10.472649 -1.527351 10.877707 -1.932409 11.427161 -2.16 
C 12 -2.16 12.572839 -2.16 13.122293 -1.932409 
C 13.527351 -1.527351 13.932409 -1.122293 14.16 -0.572839 
C 14.16 0 14.16 0.572839 13.932409 1.122293 
C 13.527351 1.527351 13.122293 1.932409 12.572839 2.16 
z
M 24 2.4 
C 24.636487 2.4 25.246992 2.147121 25.697056 1.697056 
C 26.147121 1.246992 26.4 0.636487 26.4 0 
C 26.4 -0.636487 26.147121 -1.246992 25.697056 -1.697056 
C 25.246992 -2.147121 24.636487 -2.4 24 -2.4 
C 23.363513 -2.4 22.753008 -2.147121 22.302944 -1.697056 
C 21.852879 -1.246992 21.6 -0.636487 21.6 0 
C 21.6 0.636487 21.852879 1.246992 22.302944 1.697056 
C 22.753008 2.147121 23.363513 2.4 24 2.4 
z
M 24 2.16 
C 24 2.16 23.427161 2.16 22.877707 1.932409 
C 22.472649 1.527351 22.067591 1.122293 21.84 0.572839 
C 21.84 0 21.84 -0.572839 22.067591 -1.122293 
C 22.472649 -1.527351 22.877707 -1.932409 23.427161 -2.16 
C 24 -2.16 24.572839 -2.16 25.122293 -1.932409 
C 25.527351 -1.527351 25.932409 -1.122293 26.16 -0.572839 
C 26.16 0 26.16 0.572839 25.932409 1.122293 
C 25.527351 1.527351 25.122293 1.932409 24.572839 2.16 
z
M 36 2.4 
C 36.636487 2.4 37.246992 2.147121 37.697056 1.697056 
C 38.147121 1.246992 38.4 0.636487 38.4 0 
C 38.4 -0.636487 38.147121 -1.246992 37.697056 -1.697056 
C 37.246992 -2.147121 36.636487 -2.4 36 -2.4 
C 35.363513 -2.4 34.753008 -2.147121 34.302944 -1.697056 
C 33.852879 -1.246992 33.6 -0.636487 33.6 0 
C 33.6 0.636487 33.852879 1.246992 34.302944 1.697056 
C 34.753008 2.147121 35.363513 2.4 36 2.4 
z
M 36 2.16 
C 36 2.16 35.427161 2.16 34.877707 1.932409 
C 34.472649 1.527351 34.067591 1.122293 33.84 0.572839 
C 33.84 0 33.84 -0.572839 34.067591 -1.122293 
C 34.472649 -1.527351 34.877707 -1.932409 35.427161 -2.16 
C 36 -2.16 36.572839 -2.16 37.122293 -1.932409 
C 37.527351 -1.527351 37.932409 -1.122293 38.16 -0.572839 
C 38.16 0 38.16 0.572839 37.932409 1.122293 
C 37.527351 1.527351 37.122293 1.932409 36.572839 2.16 
z
M 48 2.4 
C 48.636487 2.4 49.246992 2.147121 49.697056 1.697056 
C 50.147121 1.246992 50.4 0.636487 50.4 0 
C 50.4 -0.636487 50.147121 -1.246992 49.697056 -1.697056 
C 49.246992 -2.147121 48.636487 -2.4 48 -2.4 
C 47.363513 -2.4 46.753008 -2.147121 46.302944 -1.697056 
C 45.852879 -1.246992 45.6 -0.636487 45.6 0 
C 45.6 0.636487 45.852879 1.246992 46.302944 1.697056 
C 46.753008 2.147121 47.363513 2.4 48 2.4 
z
M 48 2.16 
C 48 2.16 47.427161 2.16 46.877707 1.932409 
C 46.472649 1.527351 46.067591 1.122293 45.84 0.572839 
C 45.84 0 45.84 -0.572839 46.067591 -1.122293 
C 46.472649 -1.527351 46.877707 -1.932409 47.427161 -2.16 
C 48 -2.16 48.572839 -2.16 49.122293 -1.932409 
C 49.527351 -1.527351 49.932409 -1.122293 50.16 -0.572839 
C 50.16 0 50.16 0.572839 49.932409 1.122293 
C 49.527351 1.527351 49.122293 1.932409 48.572839 2.16 
z
M 60 2.4 
C 60.636487 2.4 61.246992 2.147121 61.697056 1.697056 
C 62.147121 1.246992 62.4 0.636487 62.4 0 
C 62.4 -0.636487 62.147121 -1.246992 61.697056 -1.697056 
C 61.246992 -2.147121 60.636487 -2.4 60 -2.4 
C 59.363513 -2.4 58.753008 -2.147121 58.302944 -1.697056 
C 57.852879 -1.246992 57.6 -0.636487 57.6 0 
C 57.6 0.636487 57.852879 1.246992 58.302944 1.697056 
C 58.753008 2.147121 59.363513 2.4 60 2.4 
z
M 60 2.16 
C 60 2.16 59.427161 2.16 58.877707 1.932409 
C 58.472649 1.527351 58.067591 1.122293 57.84 0.572839 
C 57.84 0 57.84 -0.572839 58.067591 -1.122293 
C 58.472649 -1.527351 58.877707 -1.932409 59.427161 -2.16 
C 60 -2.16 60.572839 -2.16 61.122293 -1.932409 
C 61.527351 -1.527351 61.932409 -1.122293 62.16 -0.572839 
C 62.16 0 62.16 0.572839 61.932409 1.122293 
C 61.527351 1.527351 61.122293 1.932409 60.572839 2.16 
z
M 72 2.4 
C 72.636487 2.4 73.246992 2.147121 73.697056 1.697056 
C 74.147121 1.246992 74.4 0.636487 74.4 0 
C 74.4 -0.636487 74.147121 -1.246992 73.697056 -1.697056 
C 73.246992 -2.147121 72.636487 -2.4 72 -2.4 
C 71.363513 -2.4 70.753008 -2.147121 70.302944 -1.697056 
C 69.852879 -1.246992 69.6 -0.636487 69.6 0 
C 69.6 0.636487 69.852879 1.246992 70.302944 1.697056 
C 70.753008 2.147121 71.363513 2.4 72 2.4 
z
M 72 2.16 
C 72 2.16 71.427161 2.16 70.877707 1.932409 
C 70.472649 1.527351 70.067591 1.122293 69.84 0.572839 
C 69.84 0 69.84 -0.572839 70.067591 -1.122293 
C 70.472649 -1.527351 70.877707 -1.932409 71.427161 -2.16 
C 72 -2.16 72.572839 -2.16 73.122293 -1.932409 
C 73.527351 -1.527351 73.932409 -1.122293 74.16 -0.572839 
C 74.16 0 74.16 0.572839 73.932409 1.122293 
C 73.527351 1.527351 73.122293 1.932409 72.572839 2.16 
z
" style="fill:#ff7f0e;stroke:#ff7f0e;stroke-linecap:butt;stroke-linejoin:miter;stroke-width:1.0;"/>
  </pattern>
 </defs>
</svg>
